<?xml version="1.0" encoding="utf-8"?>
<!-- Generator: Adobe Illustrator 18.1.1, SVG Export Plug-In . SVG Version: 6.00 Build 0)  -->
<svg version="1.1" id="Layer_1" xmlns:sketch="http://www.bohemiancoding.com/sketch/ns"
	 xmlns="http://www.w3.org/2000/svg" xmlns:xlink="http://www.w3.org/1999/xlink" x="0px" y="0px" viewBox="-262 264 50 50"
	 enable-background="new -262 264 50 50" xml:space="preserve">
<title></title>
<path fill="#FFFFFF" d="M-237,264c-13.8,0-25,11.2-25,25s11.2,25,25,25s25-11.2,25-25S-223.2,264-237,264z M-237,311
	c-12.2,0-22-9.8-22-22s9.8-22,22-22s22,9.8,22,22S-224.8,311-237,311z"/>
<polygon fill="#FFFFFF" points="-225,296 -225,281 -233.7,289.5 "/>
<polygon fill="#FFFFFF" points="-249,296 -240.3,289.5 -249,281 "/>
<polygon fill="#FFFFFF" points="-239.1,290.6 -249,297 -225,297 -234.9,290.6 -237,292.6 "/>
<polygon fill="#FFFFFF" points="-248.3,281 -237,290.1 -225.7,281 "/>
</svg>
