<?xml version="1.0" encoding="utf-8"?>
<!-- Generator: Adobe Illustrator 18.1.1, SVG Export Plug-In . SVG Version: 6.00 Build 0)  -->
<svg version="1.1" id="Layer_1" xmlns:sketch="http://www.bohemiancoding.com/sketch/ns"
	 xmlns="http://www.w3.org/2000/svg" xmlns:xlink="http://www.w3.org/1999/xlink" x="0px" y="0px" viewBox="-262 264 50 50"
	 enable-background="new -262 264 50 50" xml:space="preserve">
<title></title>
<g>
	<path fill="#FFFFFF" d="M-235.2,283.3c0-1,0.1-1.5,1.6-1.5h2V278h-3.3c-3.9,0-5.3,1.8-5.3,4.9v2.3h-2.4v3.8h2.4v11h4.9v-11h3.3
		l0.4-3.8h-3.7L-235.2,283.3z"/>
	<path fill="#FFFFFF" d="M-237,264c-13.8,0-25,11.2-25,25s11.2,25,25,25s25-11.2,25-25S-223.2,264-237,264z M-237,311
		c-12.2,0-22-9.8-22-22s9.8-22,22-22s22,9.8,22,22S-224.8,311-237,311z"/>
</g>
</svg>
