<?xml version="1.0" encoding="utf-8"?>
<!-- Generator: Adobe Illustrator 18.1.1, SVG Export Plug-In . SVG Version: 6.00 Build 0)  -->
<svg version="1.1" id="Layer_1" xmlns:sketch="http://www.bohemiancoding.com/sketch/ns"
	 xmlns="http://www.w3.org/2000/svg" xmlns:xlink="http://www.w3.org/1999/xlink" x="0px" y="0px" viewBox="-262 264 50 50"
	 enable-background="new -262 264 50 50" xml:space="preserve">
<path fill="#FFFFFF" d="M-237,264c-13.8,0-25,11.2-25,25s11.2,25,25,25s25-11.2,25-25S-223.2,264-237,264z M-237,311
	c-12.2,0-22-9.8-22-22s9.8-22,22-22s22,9.8,22,22S-224.8,311-237,311z"/>
<path fill="#FFFFFF" d="M-226,279.5c-0.2-1-1-1.8-2-2c0,0-0.1,0-0.1,0h-17.7c-0.1,0-0.2,0-0.3,0.1c-1,0.2-1.7,1.1-1.8,2.1
	c0,0,0,0.1,0,0.1v18.5c0,0.1,0,0.2,0.1,0.4c0.2,1,1,1.8,2,1.9c0,0,0.1,0,0.1,0h17.6c0.1,0,0.2,0,0.3-0.1c0.9-0.2,1.6-1,1.8-1.9
	c0-0.1,0-0.2,0-0.3v-18.4C-226,279.7-226,279.6-226,279.5z M-231.4,279.4c0.7,0,1.4,0,2.1,0c0.5,0,0.9,0.4,0.9,0.9
	c0,0.7,0,1.5,0,2.2c0,0.5-0.4,0.9-0.8,0.9c-0.4,0-0.7,0-1.1,0c-0.3,0-0.7,0-1,0c-0.4,0-0.7-0.2-0.9-0.6c0-0.1-0.1-0.2-0.1-0.3
	c0-0.7,0-1.4,0-2.2C-232.2,279.8-231.8,279.4-231.4,279.4z M-237,284.3c2.5,0,4.5,2.2,4.5,4.8c-0.1,2.5-2.1,4.6-4.6,4.6
	c-2.4-0.1-4.4-2.1-4.4-4.7C-241.4,286.4-239.4,284.3-237,284.3z M-228.4,286.9c0,3.4,0,6.8,0,10.2c0,0.5-0.4,0.9-0.9,0.9
	c-5.2,0-10.3,0-15.5,0c-0.5,0-0.9-0.4-0.9-0.9c0-3.4,0-6.8,0-10.2v-0.1c0.7,0,1.4,0,2.1,0c-0.5,1.9-0.4,3.8,0.5,5.6
	c0.6,1.2,1.5,2.1,2.7,2.8c2.3,1.3,5,1.2,7.2-0.3c0.8-0.6,1.5-1.3,2-2.2c0.5-0.9,0.8-1.8,0.9-2.9c0.1-1,0-2-0.3-3L-228.4,286.9
	L-228.4,286.9z"/>
</svg>
