<?xml version="1.0" encoding="utf-8"?>
<!-- Generator: Adobe Illustrator 19.1.0, SVG Export Plug-In . SVG Version: 6.00 Build 0)  -->
<svg version="1.1" id="Layer_1" xmlns="http://www.w3.org/2000/svg" xmlns:xlink="http://www.w3.org/1999/xlink" x="0px" y="0px"
	 viewBox="0 0 400 400" style="enable-background:new 0 0 400 400;" xml:space="preserve">
<style type="text/css">
	.st0{fill:#231F20;}
	.st1{fill:#F79B42;}
	.st2{fill:#FFFFFF;}
	.st3{font-family:'Molot';}
	.st4{font-size:28.4533px;}
	.st5{display:none;}
	.st6{display:inline;}
	.st7{font-size:33.0058px;}
	.st8{letter-spacing:2;}
	.st9{font-family:'AlpinGothicCGNo1';}
	.st10{font-size:22.8502px;}
	.st11{letter-spacing:1;}
	.st12{clip-path:url(#SVGID_2_);}
	.st13{font-size:17.6613px;}
</style>
<g>
	<path class="st0" d="M276.1,337.7h-153c-3.9,0-7-3.9-7-8.6s3.1-8.6,7-8.6h153c3.9,0,7,3.9,7,8.6S279.9,337.7,276.1,337.7z"/>
</g>
<path class="st1" d="M138,261.8c30.1,16.3,100.4,15.7,123.7,0c12.4-8.4,33.8-43.7,33.8-72.9c0-52.8-42.8-95.6-95.6-95.6
	s-95.6,42.8-95.6,95.6C104.3,218.2,127.2,256,138,261.8z"/>
<g>
	<path class="st0" d="M156.4,313.6c-15.5-2.8-28.2-6.9-37.9-12.1c-0.3-0.2-0.6-0.3-0.8-0.5c-1,1.5-1.5,3.3-1.5,5.4
		c0,4.8,3.1,8.6,7,8.6h42.1C162.1,314.6,159.2,314.1,156.4,313.6z"/>
	<path class="st0" d="M238.8,315h37.3c3.9,0,7-3.9,7-8.6c0-1.9-0.5-3.7-1.4-5.2C272.3,307.6,257.2,312.3,238.8,315z"/>
</g>
<g>
	<path class="st0" d="M202.5,304.2C202.5,304.2,202.5,304.2,202.5,304.2c-15.9,0-31.8-1.3-45.9-3.9c-15.5-2.8-28.2-6.9-37.9-12.1
		c-8.2-4.4-19.6-19.2-29-37.7c-14.8-28.8-17-50-17-60.1c0-17.2,3.4-33.9,10-49.6c6.4-15.2,15.6-28.8,27.3-40.5
		c11.7-11.7,25.3-20.9,40.5-27.3c15.7-6.6,32.4-10,49.6-10s33.9,3.4,49.6,10c15.2,6.4,28.8,15.6,40.5,27.3
		c11.7,11.7,20.9,25.3,27.3,40.5c6.6,15.7,10,32.4,10,49.6c0,17.5-5.8,38.4-16.2,58.9c-9,17.7-20.2,32.5-29.3,38.6
		C266.9,298.1,237.2,304.2,202.5,304.2z M200.1,74.9c-15.6,0-30.7,3.1-44.9,9.1c-13.7,5.8-26.1,14.1-36.7,24.7
		c-10.6,10.6-18.9,23-24.7,36.7c-6,14.2-9.1,29.4-9.1,44.9c0,15.4,5.7,35.3,15.6,54.7c10.2,19.9,20,30.4,24.1,32.7
		c16.8,9.1,46,14.5,78.1,14.5c31.9,0,59.8-5.5,72.8-14.2c6.1-4.1,16.2-16.2,25.4-34.1c9.6-18.9,14.9-37.9,14.9-53.5
		c0-15.6-3.1-30.7-9.1-44.9c-5.8-13.7-14.1-26.1-24.7-36.7c-10.6-10.6-23-18.9-36.7-24.7C230.8,78,215.7,74.9,200.1,74.9z"/>
</g>
<path class="st0" d="M349,207.9c0.3-1.1,0.5-2.2,0.7-3.4h-19.9c-0.2,1.1-0.4,2.3-0.6,3.4H349z"/>
<path class="st0" d="M350.1,201.6c0.2-1.1,0.3-2.3,0.4-3.4h-20.1c-0.1,1.1-0.2,2.3-0.4,3.4H350.1z"/>
<path class="st0" d="M347,214.2c0.4-1.1,0.8-2.2,1.2-3.4h-19.5c-0.2,1.1-0.5,2.3-0.7,3.4H347z"/>
<path class="st0" d="M342.9,220.5c0.9-0.8,1.8-2,2.6-3.4h-18.4c-0.3,1.1-0.6,2.3-0.9,3.4H342.9z"/>
<path class="st0" d="M330.7,195.3h20.1c0.1-1.1,0.1-2.3,0.1-3.4h-20.1C330.8,193,330.7,194.1,330.7,195.3z"/>
<path class="st0" d="M345.6,163.7c-0.8-1.4-1.7-2.6-2.6-3.4h-15.6c0.3,1.1,0.5,2.3,0.8,3.4H345.6z"/>
<path class="st0" d="M350.9,189c0-1.2-0.1-2.3-0.1-3.4h-20c0,1.1,0.1,2.3,0.1,3.4H350.9z"/>
<path class="st0" d="M348.2,170c-0.4-1.2-0.8-2.4-1.2-3.4h-18.3c0.2,1.1,0.4,2.3,0.6,3.4H348.2z"/>
<path class="st0" d="M350.5,182.6c-0.1-1.2-0.2-2.3-0.4-3.4h-19.8c0.1,1.1,0.2,2.3,0.2,3.4H350.5z"/>
<path class="st0" d="M349.7,176.3c-0.2-1.2-0.4-2.3-0.7-3.4h-19.3c0.2,1.1,0.3,2.3,0.4,3.4H349.7z"/>
<path class="st0" d="M52.7,172.9c-0.3,1.1-0.5,2.2-0.7,3.4h17.6c0.1-1.1,0.3-2.3,0.4-3.4H52.7z"/>
<path class="st0" d="M51.6,179.2c-0.2,1.1-0.3,2.3-0.4,3.4h17.9c0.1-1.1,0.1-2.3,0.2-3.4H51.6z"/>
<path class="st0" d="M54.7,166.6c-0.4,1.1-0.8,2.2-1.2,3.4h16.9c0.2-1.1,0.4-2.3,0.6-3.4H54.7z"/>
<path class="st0" d="M58.8,160.3c-0.9,0.8-1.8,2-2.6,3.4h15.5c0.2-1.1,0.5-2.3,0.8-3.4H58.8z"/>
<path class="st0" d="M51,185.5c-0.1,1.1-0.1,2.3-0.1,3.4h18.1c0-1.1,0-2.3,0.1-3.4H51z"/>
<path class="st0" d="M56.1,217c0.8,1.4,1.7,2.6,2.6,3.4h14.8c-0.3-1.2-0.6-2.3-0.9-3.4H56.1z"/>
<path class="st0" d="M50.9,191.8c0,1.2,0.1,2.3,0.1,3.4H69c-0.1-1.2-0.1-2.4-0.1-3.4H50.9z"/>
<path class="st0" d="M53.5,210.7c0.4,1.2,0.8,2.4,1.2,3.4h17.2c-0.3-1.2-0.5-2.3-0.8-3.4H53.5z"/>
<path class="st0" d="M51.2,198.1c0.1,1.2,0.2,2.3,0.4,3.4h18.1c-0.1-1.2-0.3-2.3-0.4-3.4H51.2z"/>
<path class="st0" d="M52,204.4c0.2,1.2,0.4,2.3,0.7,3.4h17.9c-0.2-1.2-0.4-2.3-0.6-3.4H52z"/>
<text transform="matrix(1 0 0 1 193.1538 192.0649)" class="st2 st3 st4"> </text>
<g>
	<path class="st0" d="M135,184.1v-19.9h12.4c1.5,0,2.5,1,2.5,2.5v4.6c0,1.5-1.2,2.4-2.6,2.4v0.5c1.4,0,2.6,0.9,2.6,2.4v5
		c0,1.5-1,2.5-2.5,2.5H135z M143.7,169.2h-2.5v2.2h2.5V169.2z M141.2,179.1h2.5v-2.7h-2.5V179.1z"/>
	<path class="st0" d="M169.1,164.2v19.9h-12.4c-1.5,0-2.5-1-2.5-2.5v-17.4h6.2v14.9h2.5v-14.9H169.1z"/>
	<path class="st0" d="M183.7,173.4l-0.8-6.7v-2.5h5.7v19.9H182l-2.9-9.2h-0.5l0.8,6.7v2.5h-5.7v-19.9h6.6l2.9,9.2H183.7z"/>
	<path class="st0" d="M193.1,184.1v-19.9h12.4c1.5,0,2.5,1,2.5,2.5v4.6c0,1.5-1.2,2.4-2.6,2.4v0.5c1.4,0,2.6,0.9,2.6,2.4v5
		c0,1.5-1,2.5-2.5,2.5H193.1z M201.8,169.2h-2.5v2.2h2.5V169.2z M199.4,179.1h2.5v-2.7h-2.5V179.1z"/>
	<path class="st0" d="M227.3,164.2v19.9h-12.4c-1.5,0-2.5-1-2.5-2.5v-17.4h6.2v14.9h2.5v-14.9H227.3z"/>
	<path class="st0" d="M244.3,164.2c1.5,0,2.5,1,2.5,2.5v7.8c0,0.9-0.7,2-1.6,2.2l2,4.9v2.5H241l-1.7-6.2h-1.3v6.2h-6.2v-19.9H244.3z
		 M238.1,169.2v3.7h2.5v-3.7H238.1z"/>
	<path class="st0" d="M250.2,166.7v-2.5h6.2l1.5,7.7h0.5l1.5-7.7h6.2v2.5l-4.9,12v5.4H255v-5.4L250.2,166.7z"/>
</g>
<g>
	<path class="st0" d="M128,202.7v-14.3h2.6l1.4,7.9l1.4-7.9h2.6v14.3h-1.7v-9.2l-1.7,9.2h-1.2l-1.7-9.2v9.2H128z"/>
	<path class="st0" d="M142.5,202.9c-2.6,0-2.8-1.9-2.8-3.9v-10.7h1.9V199c0,1.5,0,2.2,0.8,2.2c0.9,0,0.9-0.7,0.9-2.2v-10.7h1.9V199
		C145.3,201,145.1,202.9,142.5,202.9z"/>
	<path class="st0" d="M151.2,202.9c-2.5,0-2.8-1.8-2.8-3.4v-1.4h1.9v1.4c0,1.4,0.3,1.7,0.9,1.7c0.9,0,0.9-0.8,0.9-1.7
		c0-3.3-3.5-3.5-3.5-8c0-2,0.9-3.3,2.8-3.3c2.1,0,2.6,1.4,2.6,3.3v1.3H152v-1.3c0-0.9,0-1.7-0.7-1.7c-0.6,0-0.8,0.4-0.8,1.7
		c0,3.8,3.5,3.5,3.5,8C154,201.5,153.2,202.9,151.2,202.9z"/>
	<path class="st0" d="M157.2,202.7v-14.3h1.9v14.3H157.2z"/>
	<path class="st0" d="M165.2,202.9c-0.9,0-1.5-0.3-2-0.7c-0.6-0.6-0.7-1.2-0.7-2.6v-8.1c0-1,0.1-1.8,0.7-2.5c0.4-0.5,1.3-0.7,2-0.7
		c1.4,0,2,0.7,2.2,1c0.4,0.6,0.5,1.5,0.5,2.2v1.8H166v-1.8c0-0.4,0-0.8-0.1-1.1c-0.1-0.3-0.3-0.4-0.6-0.4c-0.3,0-0.6,0.2-0.7,0.4
		c-0.1,0.3-0.1,1-0.1,1.2v8.1c0,0.9,0,1.6,0.8,1.6c0.8,0,0.8-0.9,0.8-1.6v-1.9h1.9v1.9c0,0.6,0,1.5-0.4,2.2
		C167.1,202.4,166.3,202.9,165.2,202.9z"/>
	<path class="st0" d="M176.3,202.7v-14.3h4.5v1.8h-2.6v4.2h2.3v1.8h-2.3v6.5H176.3z"/>
	<path class="st0" d="M183.6,202.7v-14.3h4.7v1.8h-2.8v4.2h2.4v1.8h-2.4v4.7h2.8v1.8H183.6z"/>
	<path class="st0" d="M193.7,202.9c-2.5,0-2.8-1.8-2.8-3.4v-1.4h1.9v1.4c0,1.4,0.3,1.7,0.9,1.7c0.9,0,0.9-0.8,0.9-1.7
		c0-3.3-3.5-3.5-3.5-8c0-2,0.9-3.3,2.8-3.3c2.1,0,2.6,1.4,2.6,3.3v1.3h-1.9v-1.3c0-0.9,0-1.7-0.7-1.7c-0.6,0-0.8,0.4-0.8,1.7
		c0,3.8,3.5,3.5,3.5,8C196.4,201.5,195.6,202.9,193.7,202.9z"/>
	<path class="st0" d="M200.8,202.7v-12.5h-1.7v-1.8h5.3v1.8h-1.7v12.5H200.8z"/>
	<path class="st0" d="M207.4,202.7v-14.3h1.9v14.3H207.4z"/>
	<path class="st0" d="M213.9,202.7l-1.9-14.3h2l1,10.2l1-10.2h2l-1.9,14.3H213.9z"/>
	<path class="st0" d="M219.4,202.7l1.9-14.3h2.6l1.9,14.3h-1.8l-0.4-3.3h-1.9l-0.4,3.3H219.4z M222.5,191.1l-0.7,6.5h1.4
		L222.5,191.1z"/>
	<path class="st0" d="M228.6,202.7v-14.3h1.9v12.6h2.6v1.8H228.6z"/>
	<path class="st0" d="M240.9,202.7v-1.7c1.5-2.7,3.6-5.2,3.6-9.4c0-1.3-0.3-1.7-0.8-1.7c-0.7,0-0.8,0.7-0.8,1.7v1.3h-1.9v-1.3
		c0-1,0-3.4,2.7-3.4c1.3,0,2.6,0.7,2.6,3.4c0,4.8-2.6,7.8-3.4,9.4h3.6v1.7H240.9z"/>
	<path class="st0" d="M252.6,202.9c-2.2,0-2.8-1.5-2.8-3.6v-7.8c0-1.7,0.5-3.3,2.8-3.3c2.8,0,2.7,2.5,2.7,3.3v7.8
		C255.3,200.9,255.1,202.9,252.6,202.9z M251.7,199.3c0,1.1,0,1.9,0.8,1.9c0.8,0,0.8-0.8,0.8-1.9v-7.8c0-1-0.1-1.6-0.8-1.6
		c-0.7,0-0.9,0.6-0.9,1.6L251.7,199.3z"/>
	<path class="st0" d="M260.5,202.7v-11c-0.3,0-0.6,0-0.9,0c-0.5,0-1,0.1-1.5,0.2v-1.6c1.8-0.1,2.3-0.7,2.5-1.8h1.8v14.3H260.5z"/>
	<path class="st0" d="M269.4,202.9c-2.2,0-2.6-1.4-2.6-3.3v-0.9h1.8v0.9c0,0.6,0,1.6,0.8,1.6c0.7,0,0.8-0.6,0.8-1.6v-3.3
		c0-1.1,0-1.8-0.8-1.8c-0.8,0-0.8,0.8-0.8,1.4h-1.8v-7.7h5v1.7h-3v3.5c0.4-0.3,0.9-0.5,1.4-0.5c1.8,0,1.8,1.7,1.8,3.4v3.3
		C272.1,201.9,271.3,202.9,269.4,202.9z"/>
</g>
<g>
	<path class="st0" d="M172,219.5v-1.4c0.1,0,0.3,0,0.4,0c0.5,0,0.5-0.4,0.5-1.5v-8.3h1.5v8.3c0,1.7-0.1,2.9-1.8,2.9
		C172.4,219.5,172.3,219.5,172,219.5z"/>
	<path class="st0" d="M179.3,219.5c-2,0-2.1-1.5-2.1-3v-8.2h1.5v8.2c0,1.2,0,1.7,0.7,1.7c0.7,0,0.7-0.5,0.7-1.7v-8.2h1.5v8.2
		C181.5,218.1,181.3,219.5,179.3,219.5z"/>
	<path class="st0" d="M184.2,219.4v-11.1h1.9l1.6,6.8v-6.8h1.4v11.1h-1.8l-1.7-7v7H184.2z"/>
	<path class="st0" d="M191.8,219.4v-11.1h3.6v1.4h-2.1v3.3h1.8v1.4h-1.8v3.6h2.1v1.4H191.8z"/>
	<path class="st0" d="M203.8,219.5c-1.7,0-2-1.1-2-2.5v-0.7h1.4v0.7c0,0.4,0,1.2,0.6,1.2c0.6,0,0.6-0.4,0.6-1.2v-2.5
		c0-0.9,0-1.4-0.6-1.4c-0.6,0-0.7,0.6-0.7,1.1h-1.4v-6h3.9v1.3h-2.3v2.7c0.3-0.2,0.7-0.4,1.1-0.4c1.4,0,1.4,1.3,1.4,2.6v2.5
		C205.8,218.7,205.2,219.5,203.8,219.5z"/>
	<path class="st0" d="M208.4,221.4l0.7-2h-0.7v-1.7h1.6v1.7l-0.9,2H208.4z"/>
	<path class="st0" d="M214.7,219.5c-2.1,0-2.1-1.7-2.1-2.6v-6.4c0-1.2,0.5-2.3,2-2.3c1.8,0,2,1.1,2,2.3v0.8h-1.4v-0.8
		c0-0.5,0-1-0.6-1c-0.7,0-0.6,0.8-0.6,1v2.5c0.4-0.2,0.8-0.5,1.2-0.5c1.2,0,1.4,1.1,1.4,2.3v2.1
		C216.7,217.8,216.6,219.5,214.7,219.5z M214.1,216.9c0,0.9,0,1.3,0.6,1.3c0.6,0,0.6-0.4,0.6-1.3V215c0-0.7,0-1.2-0.5-1.2
		c-0.2,0-0.5,0.2-0.7,0.3V216.9z"/>
	<path class="st0" d="M219.3,221.4l0.7-2h-0.7v-1.7h1.6v1.7l-0.9,2H219.3z"/>
	<path class="st0" d="M224.5,219.4l1.9-9.8h-2.9v-1.3h4.3v1.2l-1.8,9.9H224.5z"/>
</g>
<g class="st5">
	<text transform="matrix(1 0 0 1 123.1104 181.5147)" class="st6"><tspan x="0" y="0" class="st0 st3 st7 st8">B</tspan><tspan x="22.3" y="0" class="st0 st3 st7 st8">u</tspan><tspan x="44.9" y="0" class="st0 st3 st7 st8">nbu</tspan><tspan x="112.4" y="0" class="st0 st3 st7 st8">r</tspan><tspan x="134.6" y="0" class="st0 st3 st7">y</tspan></text>
	<text transform="matrix(1 0 0 1 115.2925 203.0918)" class="st6"><tspan x="0" y="0" class="st0 st9 st10 st8">M</tspan><tspan x="13.6" y="0" class="st0 st9 st10 st8">U</tspan><tspan x="24.2" y="0" class="st0 st9 st10 st8">S</tspan><tspan x="33.9" y="0" class="st0 st9 st10 st8">I</tspan><tspan x="40.3" y="0" class="st0 st9 st10 st11">C </tspan><tspan x="56" y="0" class="st0 st9 st10 st8">F</tspan><tspan x="64.5" y="0" class="st0 st9 st10 st8">E</tspan><tspan x="73.4" y="0" class="st0 st9 st10 st8">S</tspan><tspan x="83.2" y="0" class="st0 st9 st10 st8">T</tspan><tspan x="92.1" y="0" class="st0 st9 st10 st8">I</tspan><tspan x="98.4" y="0" class="st0 st9 st10 st11">V</tspan><tspan x="106.9" y="0" class="st0 st9 st10 st8">A</tspan><tspan x="116.6" y="0" class="st0 st9 st10 st11">L</tspan><tspan x="125" y="0" class="st0 st9 st10 st11"> </tspan><tspan x="131" y="0" class="st0 st9 st10 st11">2</tspan><tspan x="141.3" y="0" class="st0 st9 st10">0</tspan><tspan x="150.7" y="0" class="st0 st9 st10 st11">1</tspan><tspan x="161" y="0" class="st0 st9 st10">5</tspan></text>
	<g class="st6">
		<defs>
			<rect id="SVGID_1_" x="5" y="149.9" width="390" height="77.4"/>
		</defs>
		<clipPath id="SVGID_2_">
			<use xlink:href="#SVGID_1_"  style="overflow:visible;"/>
		</clipPath>
		<g class="st12">
			<text transform="matrix(1 0 0 1 167.2876 222.4385)"><tspan x="0" y="0" class="st0 st9 st13 st11">J</tspan><tspan x="5.2" y="0" class="st0 st9 st13 st11">UN</tspan><tspan x="22.3" y="0" class="st0 st9 st13 st11">E</tspan><tspan x="29.1" y="0" class="st0 st9 st13 st11"> 5</tspan><tspan x="41.6" y="0" class="st0 st9 st13 st11">,</tspan><tspan x="46.3" y="0" class="st0 st9 st13 st11">6</tspan><tspan x="54.3" y="0" class="st0 st9 st13 st11">,</tspan><tspan x="58.9" y="0" class="st0 st9 st13">7</tspan></text>
		</g>
	</g>
</g>
</svg>
