<?xml version="1.0" encoding="utf-8"?>
<!-- Generator: Adobe Illustrator 19.1.0, SVG Export Plug-In . SVG Version: 6.00 Build 0)  -->
<svg version="1.1" id="Layer_1" xmlns="http://www.w3.org/2000/svg" xmlns:xlink="http://www.w3.org/1999/xlink" x="0px" y="0px"
	 viewBox="0 0 400 400" style="enable-background:new 0 0 400 400;" xml:space="preserve">
<style type="text/css">
	.st0{fill:#231F20;}
	.st1{fill:#FFFFFF;}
	.st2{fill:none;}
</style>
<g>
	<path class="st0" d="M337.1,254.1H62.9c-7.1,0-12.9-5.8-12.9-12.9v-82.5c0-7.1,5.8-12.9,12.9-12.9h274.2c7.1,0,12.9,5.8,12.9,12.9
		v82.5C350,248.4,344.2,254.1,337.1,254.1z"/>
	<g>
		<path class="st1" d="M113.3,183.9c0,0.7-0.6,1.3-1.3,1.3h-4.7c-0.7,0-1.3-0.6-1.3-1.3c0-0.7,0.6-1.3,1.3-1.3h1V172l-4,5.4
			c-0.5,0.7-1.6,0.7-2.1,0.1l-4.8-5.8v10.9h1c0.7,0,1.3,0.6,1.3,1.3c0,0.7-0.6,1.3-1.3,1.3h-4.6c-0.7,0-1.3-0.6-1.3-1.3
			c0-0.7,0.6-1.3,1.3-1.3h1v-13.2h-1c-0.7,0-1.3-0.6-1.3-1.3c0-0.7,0.6-1.3,1.3-1.3h2.3c0.4,0,0.8,0.2,1,0.5l6.1,7.3l5.4-7.2
			c0.3-0.4,0.6-0.6,1.1-0.6h2.4c0.7,0,1.3,0.6,1.3,1.3c0,0.7-0.6,1.3-1.3,1.3h-1.1v13.2h1.1C112.7,182.5,113.3,183.1,113.3,183.9z"
			/>
		<path class="st1" d="M136.7,183.9c0,0.7-0.6,1.3-1.3,1.3h-4.8c-0.7,0-1.3-0.6-1.3-1.3c0-0.7,0.6-1.4,1.3-1.4h0.6l-1.4-3.1h-7.5
			l-1.4,3.1h0.6c0.7,0,1.3,0.6,1.3,1.4c0,0.7-0.6,1.3-1.3,1.3h-4.8c-0.7,0-1.3-0.6-1.3-1.3c0-0.7,0.6-1.4,1.3-1.4h1.3l1.4-3.1h-0.1
			c-0.7,0-1.3-0.6-1.3-1.3c0-0.7,0.6-1.3,1.3-1.3h1.3l3.4-7.6h-0.3c-0.7,0-1.3-0.6-1.3-1.3c0-0.7,0.6-1.3,1.3-1.3h4.8
			c0.7,0,1.3,0.6,1.3,1.3c0,0.7-0.6,1.3-1.3,1.3h-0.3l3.4,7.6h1.3c0.7,0,1.3,0.6,1.3,1.3c0,0.7-0.6,1.3-1.3,1.3h-0.1l1.4,3.1h1.3
			C136.1,182.5,136.7,183.1,136.7,183.9z M128.6,176.7l-2.6-5.8l-2.6,5.8H128.6z"/>
		<path class="st1" d="M148.1,185.2c-2.2,0-5.6,0-7.8,0c-0.7,0-1.3-0.6-1.3-1.3c0-0.7,0.6-1.3,1.3-1.3h1.3v-13.3h-1.3
			c-0.7,0-1.3-0.6-1.3-1.4c0-0.7,0.6-1.3,1.3-1.3h7.8C160.3,166.5,160.3,185.2,148.1,185.2z M148.1,169.2h-3.8v13.3h3.8
			C156.8,182.5,156.8,169.2,148.1,169.2z"/>
		<path class="st1" d="M177.6,181.3v2.5c0,0.5-0.3,1-0.7,1.2c-0.2,0.1-0.5,0.2-0.7,0.2h-14.7c-0.7,0-1.3-0.6-1.3-1.3
			c0-0.7,0.6-1.3,1.3-1.3h1.2v-5.4h-1.2c-0.7,0-1.3-0.6-1.3-1.4c0-0.7,0.6-1.3,1.3-1.3h1.2v-5.3h-1.2c-0.7,0-1.3-0.6-1.3-1.3
			s0.6-1.3,1.3-1.3h14.2c0.7,0,1.3,0.6,1.3,1.3v2.8c0,0.7-0.6,1.3-1.3,1.3c-0.7,0-1.4-0.6-1.4-1.3v-1.4h-8.9v5.3h6.1
			c0.7,0,1.3,0.6,1.3,1.3c0,0.7-0.6,1.4-1.3,1.4h-6.1v5.4h9.6v-1.3c0-0.7,0.6-1.3,1.3-1.3C177,179.9,177.6,180.5,177.6,181.3z"/>
		<path class="st1" d="M197.9,183.9c0,0.7-0.6,1.3-1.3,1.3h-5.1c-0.7,0-1.3-0.6-1.3-1.3c0-0.7,0.6-1.3,1.3-1.3h1.2v-13.4h-1.2
			c-0.7,0-1.3-0.6-1.3-1.3c0-0.7,0.6-1.3,1.3-1.3h5.1c0.7,0,1.3,0.6,1.3,1.3c0,0.7-0.6,1.3-1.3,1.3h-1.2v13.4h1.2
			C197.3,182.5,197.9,183.1,197.9,183.9z"/>
		<path class="st1" d="M220.8,167.9c0,0.7-0.6,1.3-1.3,1.3h-1.1v14.5c0,1.3-1.6,1.9-2.4,0.9l-10.4-12.9v10.9h1.1
			c0.7,0,1.3,0.6,1.3,1.3c0,0.7-0.6,1.3-1.3,1.3h-4.9c-0.7,0-1.4-0.6-1.4-1.3c0-0.7,0.6-1.3,1.4-1.3h1.1v-13.3h-1.1
			c-0.7,0-1.4-0.6-1.4-1.3c0-0.7,0.6-1.3,1.4-1.3h2.4c0.5,0,0.9,0.2,1.1,0.5l10.4,12.9v-10.8h-1.1c-0.7,0-1.3-0.6-1.3-1.3
			c0-0.7,0.6-1.3,1.3-1.3h4.9C220.2,166.5,220.8,167.1,220.8,167.9z"/>
		<path class="st1" d="M244,165.7c13.3,0,13.3,20.2,0,20.2C230.7,186,230.7,165.7,244,165.7z M244,183.3c9.8,0,9.8-14.9,0-14.9
			C234.2,168.4,234.2,183.3,244,183.3z"/>
		<path class="st1" d="M276.2,183.9c0,0.7-0.6,1.3-1.3,1.3h-5.1c-0.7,0-1.3-0.6-1.3-1.3c0-0.7,0.6-1.3,1.3-1.3h1.1v-5.4h-8.9v5.4
			h1.2c0.7,0,1.3,0.6,1.3,1.3c0,0.7-0.6,1.3-1.3,1.3H258c-0.7,0-1.3-0.6-1.3-1.3c0-0.7,0.6-1.3,1.3-1.3h1.2v-5.4H258
			c-0.7,0-1.3-0.6-1.3-1.3c0-0.7,0.6-1.3,1.3-1.3h1.2v-5.3H258c-0.7,0-1.3-0.6-1.3-1.3c0-0.7,0.6-1.3,1.3-1.3h5.1
			c0.7,0,1.3,0.6,1.3,1.3c0,0.7-0.6,1.3-1.3,1.3h-1.2v5.3h8.9v-5.3h-1.2c-0.7,0-1.3-0.6-1.3-1.3c0-0.7,0.6-1.3,1.3-1.3h5.1
			c0.7,0,1.3,0.6,1.3,1.3c0,0.7-0.6,1.3-1.3,1.3h-1.2v5.3h1.3c0.7,0,1.3,0.6,1.3,1.3c0,0.7-0.6,1.3-1.3,1.3h-1.3v5.4h1.4
			C275.6,182.5,276.2,183.1,276.2,183.9z"/>
		<path class="st1" d="M286.5,183.9c0,0.7-0.6,1.3-1.3,1.3H280c-0.7,0-1.3-0.6-1.3-1.3c0-0.7,0.6-1.3,1.3-1.3h1.2v-13.4H280
			c-0.7,0-1.3-0.6-1.3-1.3c0-0.7,0.6-1.3,1.3-1.3h5.1c0.7,0,1.3,0.6,1.3,1.3c0,0.7-0.6,1.3-1.3,1.3H284v13.4h1.2
			C285.9,182.5,286.5,183.1,286.5,183.9z"/>
		<path class="st1" d="M298.3,165.7c13.3,0,13.3,20.2,0,20.2C285,186,285,165.7,298.3,165.7z M298.3,183.3c9.8,0,9.8-14.9,0-14.9
			C288.5,168.4,288.5,183.3,298.3,183.3z"/>
		<path class="st1" d="M142.3,193.4v2.7c0,0.7-0.6,1.3-1.4,1.3c-0.7,0-1.3-0.6-1.3-1.3v-1.4h-9.5v5.2h6.1c0.7,0,1.3,0.6,1.3,1.3
			c0,0.7-0.6,1.3-1.3,1.3h-6.1v5.4h1.2c0.7,0,1.3,0.6,1.3,1.3c0,0.7-0.6,1.3-1.3,1.3h-5.1c-0.7,0-1.4-0.6-1.4-1.3
			c0-0.7,0.6-1.3,1.4-1.3h1.2v-5.4h-1.2c-0.7,0-1.3-0.6-1.3-1.3c0-0.7,0.6-1.3,1.3-1.3h1.2v-5.2h-1.2c-0.7,0-1.3-0.6-1.3-1.4
			c0-0.7,0.6-1.3,1.3-1.3h14.6C141.7,192,142.3,192.6,142.3,193.4z"/>
		<path class="st1" d="M162.4,206.7v2.5c0,0.5-0.3,1-0.7,1.2c-0.2,0.1-0.5,0.2-0.7,0.2h-14.7c-0.7,0-1.3-0.6-1.3-1.3
			c0-0.7,0.6-1.3,1.3-1.3h1.2v-5.4h-1.2c-0.7,0-1.3-0.6-1.3-1.4c0-0.7,0.6-1.3,1.3-1.3h1.2v-5.3h-1.2c-0.7,0-1.3-0.6-1.3-1.3
			c0-0.7,0.6-1.3,1.3-1.3h14.2c0.7,0,1.3,0.6,1.3,1.3v2.8c0,0.7-0.6,1.3-1.3,1.3c-0.7,0-1.4-0.6-1.4-1.3v-1.4h-8.9v5.3h6.1
			c0.7,0,1.3,0.6,1.3,1.3c0,0.7-0.6,1.4-1.3,1.4h-6.1v5.4h9.6v-1.3c0-0.7,0.6-1.3,1.3-1.3C161.8,205.3,162.4,205.9,162.4,206.7z"/>
		<path class="st1" d="M179.3,210.6h-8.5c-3.2,0-5.5-2.1-5.5-5c0-0.7,0.6-1.3,1.4-1.3c0.7,0,1.3,0.6,1.3,1.3c0,1.6,1.4,2.3,2.8,2.3
			h8.5c3.5,0,3.4-5.3,0-5.3c-2.8,0-5.5,0-8.3,0c-7,0-7-10.7,0-10.7h6.7c1,0,2,0.2,2.7,0.6c0.2-0.5,0.7-0.9,1.3-0.9
			c0.7,0,1.3,0.6,1.3,1.4v3.7c0,0.7-0.6,1.3-1.3,1.3c-0.7,0-1.4-0.6-1.4-1.3c0-1.6-1.4-2.1-2.6-2.1h-6.7c-3.5,0-3.5,5.3,0,5.3
			c2.7,0,5.5,0,8.3,0C186.3,199.9,186.3,210.6,179.3,210.6z"/>
		<path class="st1" d="M203.9,193.3v2.8c0,0.7-0.6,1.3-1.3,1.3c-0.7,0-1.3-0.6-1.3-1.3v-1.5h-4.8V208h1.2c0.7,0,1.3,0.6,1.3,1.3
			c0,0.7-0.6,1.3-1.3,1.3h-5.1c-0.7,0-1.3-0.6-1.3-1.3c0-0.7,0.6-1.3,1.3-1.3h1.2v-13.3h-4.8v1.5c0,0.7-0.6,1.3-1.3,1.3
			c-0.7,0-1.3-0.6-1.3-1.3v-2.8c0-0.7,0.6-1.3,1.3-1.3h14.9C203.3,192,203.9,192.5,203.9,193.3z"/>
		<path class="st1" d="M213.5,209.3c0,0.7-0.6,1.3-1.3,1.3h-5.1c-0.7,0-1.3-0.6-1.3-1.3c0-0.7,0.6-1.3,1.3-1.3h1.2v-13.4h-1.2
			c-0.7,0-1.3-0.6-1.3-1.3c0-0.7,0.6-1.3,1.3-1.3h5.1c0.7,0,1.3,0.6,1.3,1.3c0,0.7-0.6,1.3-1.3,1.3H211V208h1.2
			C212.9,208,213.5,208.6,213.5,209.3z"/>
		<path class="st1" d="M236.5,193.3c0,0.7-0.6,1.4-1.3,1.4H234l-6.7,15.4c-0.5,1.1-2,1.1-2.5,0l-7.2-15.5h-1c-0.7,0-1.3-0.6-1.3-1.4
			s0.6-1.4,1.3-1.4h4.3c0.7,0,1.3,0.6,1.3,1.4s-0.6,1.4-1.3,1.4h-0.4l5.4,11.7l5.1-11.7h-0.2c-0.7,0-1.3-0.6-1.3-1.4
			s0.6-1.4,1.3-1.4h4.3C235.9,192,236.5,192.6,236.5,193.3z"/>
		<path class="st1" d="M256.1,209.3c0,0.7-0.6,1.3-1.3,1.3h-4.8c-0.7,0-1.3-0.6-1.3-1.3c0-0.7,0.6-1.4,1.3-1.4h0.6l-1.4-3.1h-7.5
			l-1.4,3.1h0.6c0.7,0,1.3,0.6,1.3,1.4c0,0.7-0.6,1.3-1.3,1.3h-4.8c-0.7,0-1.3-0.6-1.3-1.3c0-0.7,0.6-1.4,1.3-1.4h1.3l1.4-3.1h-0.1
			c-0.7,0-1.3-0.6-1.3-1.3c0-0.7,0.6-1.3,1.3-1.3h1.3l3.4-7.6h-0.3c-0.7,0-1.3-0.6-1.3-1.3c0-0.7,0.6-1.3,1.3-1.3h4.8
			c0.7,0,1.3,0.6,1.3,1.3c0,0.7-0.6,1.3-1.3,1.3h-0.3l3.4,7.6h1.3c0.7,0,1.3,0.6,1.3,1.3c0,0.7-0.6,1.3-1.3,1.3H252l1.4,3.1h1.3
			C255.5,207.9,256.1,208.6,256.1,209.3z M247.9,202.1l-2.6-5.8l-2.6,5.8H247.9z"/>
		<path class="st1" d="M261,208v-13.4h-1.2c-0.7,0-1.3-0.6-1.3-1.3c0-0.7,0.6-1.3,1.3-1.3h5.1c0.7,0,1.3,0.6,1.3,1.3
			c0,0.7-0.6,1.3-1.3,1.3h-1.2V208h9.5v-1.4c0-0.7,0.6-1.3,1.3-1.3c0.7,0,1.3,0.6,1.3,1.3v2.7c0,0.7-0.6,1.3-1.3,1.3h-14.7
			c-0.7,0-1.3-0.6-1.3-1.3c0-0.7,0.6-1.3,1.3-1.3H261z"/>
	</g>
	<g>
		<g>
			<line class="st2" x1="91.8" y1="219" x2="308.2" y2="219"/>
		</g>
		<g>
			<g>
				<path class="st1" d="M91.8,220c-0.5,0-1-0.4-1-1c0-0.5,0.4-1,0.9-1h0c0.5,0,1,0.4,1,1C92.8,219.5,92.3,220,91.8,220z"/>
			</g>
			<g>
				<path class="st1" d="M100.3,220c-0.5,0-1-0.4-1-1c0-0.5,0.4-1,0.9-1h0c0.5,0,1,0.4,1,1C101.3,219.5,100.8,220,100.3,220z
					 M96.1,220c-0.5,0-1-0.4-1-1c0-0.5,0.4-1,0.9-1h0c0.5,0,1,0.4,1,1C97,219.5,96.6,220,96.1,220z"/>
			</g>
			<g>
				<path class="st1" d="M304,220c-0.5,0-1-0.4-1-1c0-0.5,0.4-1,0.9-1h0c0.5,0,1,0.4,1,1C304.9,219.5,304.5,220,304,220z M299.7,220
					c-0.5,0-1-0.4-1-1c0-0.5,0.4-1,0.9-1h0c0.5,0,1,0.4,1,1C300.7,219.5,300.3,220,299.7,220z M295.5,220c-0.5,0-1-0.4-1-1
					c0-0.5,0.4-1,0.9-1h0c0.5,0,1,0.4,1,1C296.4,219.5,296,220,295.5,220z M291.3,220c-0.5,0-1-0.4-1-1c0-0.5,0.4-1,0.9-1h0
					c0.5,0,1,0.4,1,1C292.2,219.5,291.8,220,291.3,220z M287,220c-0.5,0-1-0.4-1-1c0-0.5,0.4-1,0.9-1h0c0.5,0,1,0.4,1,1
					C288,219.5,287.5,220,287,220z M282.8,220c-0.5,0-1-0.4-1-1c0-0.5,0.4-1,0.9-1h0c0.5,0,1,0.4,1,1
					C283.7,219.5,283.3,220,282.8,220z M278.5,220c-0.5,0-1-0.4-1-1c0-0.5,0.4-1,0.9-1h0c0.5,0,1,0.4,1,1
					C279.5,219.5,279,220,278.5,220z M274.3,220c-0.5,0-1-0.4-1-1c0-0.5,0.4-1,0.9-1h0c0.5,0,1,0.4,1,1
					C275.2,219.5,274.8,220,274.3,220z M270,220c-0.5,0-1-0.4-1-1c0-0.5,0.4-1,0.9-1h0c0.5,0,1,0.4,1,1C271,219.5,270.6,220,270,220
					z M265.8,220c-0.5,0-1-0.4-1-1c0-0.5,0.4-1,0.9-1h0c0.5,0,1,0.4,1,1C266.7,219.5,266.3,220,265.8,220z M261.5,220
					c-0.5,0-1-0.4-1-1c0-0.5,0.4-1,0.9-1h0c0.5,0,1,0.4,1,1C262.5,219.5,262.1,220,261.5,220z M257.3,220c-0.5,0-1-0.4-1-1
					c0-0.5,0.4-1,0.9-1h0c0.5,0,1,0.4,1,1C258.3,219.5,257.8,220,257.3,220z M253.1,220c-0.5,0-1-0.4-1-1c0-0.5,0.4-1,0.9-1h0
					c0.5,0,1,0.4,1,1C254,219.5,253.6,220,253.1,220z M248.8,220c-0.5,0-1-0.4-1-1c0-0.5,0.4-1,0.9-1h0c0.5,0,1,0.4,1,1
					C249.8,219.5,249.3,220,248.8,220z M244.6,220c-0.5,0-1-0.4-1-1c0-0.5,0.4-1,0.9-1h0c0.5,0,1,0.4,1,1
					C245.5,219.5,245.1,220,244.6,220z M240.3,220c-0.5,0-1-0.4-1-1c0-0.5,0.4-1,0.9-1h0c0.5,0,1,0.4,1,1
					C241.3,219.5,240.9,220,240.3,220z M236.1,220c-0.5,0-1-0.4-1-1c0-0.5,0.4-1,0.9-1h0c0.5,0,1,0.4,1,1
					C237,219.5,236.6,220,236.1,220z M231.8,220c-0.5,0-1-0.4-1-1c0-0.5,0.4-1,0.9-1h0c0.5,0,1,0.4,1,1
					C232.8,219.5,232.4,220,231.8,220z M227.6,220c-0.5,0-1-0.4-1-1c0-0.5,0.4-1,0.9-1h0c0.5,0,1,0.4,1,1
					C228.6,219.5,228.1,220,227.6,220z M223.4,220c-0.5,0-1-0.4-1-1c0-0.5,0.4-1,0.9-1h0c0.5,0,1,0.4,1,1
					C224.3,219.5,223.9,220,223.4,220z M219.1,220c-0.5,0-1-0.4-1-1c0-0.5,0.4-1,0.9-1h0c0.5,0,1,0.4,1,1
					C220.1,219.5,219.6,220,219.1,220z M214.9,220c-0.5,0-1-0.4-1-1c0-0.5,0.4-1,0.9-1h0c0.5,0,1,0.4,1,1
					C215.8,219.5,215.4,220,214.9,220z M210.6,220c-0.5,0-1-0.4-1-1c0-0.5,0.4-1,0.9-1h0c0.5,0,1,0.4,1,1
					C211.6,219.5,211.2,220,210.6,220z M206.4,220c-0.5,0-1-0.4-1-1c0-0.5,0.4-1,0.9-1h0c0.5,0,1,0.4,1,1
					C207.3,219.5,206.9,220,206.4,220z M202.1,220c-0.5,0-1-0.4-1-1c0-0.5,0.4-1,0.9-1h0c0.5,0,1,0.4,1,1
					C203.1,219.5,202.7,220,202.1,220z M197.9,220c-0.5,0-1-0.4-1-1c0-0.5,0.4-1,0.9-1h0c0.5,0,1,0.4,1,1
					C198.9,219.5,198.4,220,197.9,220z M193.7,220c-0.5,0-1-0.4-1-1c0-0.5,0.4-1,0.9-1h0c0.5,0,1,0.4,1,1
					C194.6,219.5,194.2,220,193.7,220z M189.4,220c-0.5,0-1-0.4-1-1c0-0.5,0.4-1,0.9-1h0c0.5,0,1,0.4,1,1
					C190.4,219.5,189.9,220,189.4,220z M185.2,220c-0.5,0-1-0.4-1-1c0-0.5,0.4-1,0.9-1h0c0.5,0,1,0.4,1,1
					C186.1,219.5,185.7,220,185.2,220z M180.9,220c-0.5,0-1-0.4-1-1c0-0.5,0.4-1,0.9-1h0c0.5,0,1,0.4,1,1
					C181.9,219.5,181.5,220,180.9,220z M176.7,220c-0.5,0-1-0.4-1-1c0-0.5,0.4-1,0.9-1h0c0.5,0,1,0.4,1,1
					C177.6,219.5,177.2,220,176.7,220z M172.4,220c-0.5,0-1-0.4-1-1c0-0.5,0.4-1,0.9-1h0c0.5,0,1,0.4,1,1
					C173.4,219.5,173,220,172.4,220z M168.2,220c-0.5,0-1-0.4-1-1c0-0.5,0.4-1,0.9-1h0c0.5,0,1,0.4,1,1
					C169.2,219.5,168.7,220,168.2,220z M164,220c-0.5,0-1-0.4-1-1c0-0.5,0.4-1,0.9-1h0c0.5,0,1,0.4,1,1
					C164.9,219.5,164.5,220,164,220z M159.7,220c-0.5,0-1-0.4-1-1c0-0.5,0.4-1,0.9-1h0c0.5,0,1,0.4,1,1
					C160.7,219.5,160.2,220,159.7,220z M155.5,220c-0.5,0-1-0.4-1-1c0-0.5,0.4-1,0.9-1h0c0.5,0,1,0.4,1,1
					C156.4,219.5,156,220,155.5,220z M151.2,220c-0.5,0-1-0.4-1-1c0-0.5,0.4-1,0.9-1h0c0.5,0,1,0.4,1,1
					C152.2,219.5,151.8,220,151.2,220z M147,220c-0.5,0-1-0.4-1-1c0-0.5,0.4-1,0.9-1h0c0.5,0,1,0.4,1,1
					C147.9,219.5,147.5,220,147,220z M142.7,220c-0.5,0-1-0.4-1-1c0-0.5,0.4-1,0.9-1h0c0.5,0,1,0.4,1,1
					C143.7,219.5,143.3,220,142.7,220z M138.5,220c-0.5,0-1-0.4-1-1c0-0.5,0.4-1,0.9-1h0c0.5,0,1,0.4,1,1
					C139.4,219.5,139,220,138.5,220z M134.3,220c-0.5,0-1-0.4-1-1c0-0.5,0.4-1,0.9-1h0c0.5,0,1,0.4,1,1
					C135.2,219.5,134.8,220,134.3,220z M130,220c-0.5,0-1-0.4-1-1c0-0.5,0.4-1,0.9-1h0c0.5,0,1,0.4,1,1C131,219.5,130.5,220,130,220
					z M125.8,220c-0.5,0-1-0.4-1-1c0-0.5,0.4-1,0.9-1h0c0.5,0,1,0.4,1,1C126.7,219.5,126.3,220,125.8,220z M121.5,220
					c-0.5,0-1-0.4-1-1c0-0.5,0.4-1,0.9-1h0c0.5,0,1,0.4,1,1C122.5,219.5,122,220,121.5,220z M117.3,220c-0.5,0-1-0.4-1-1
					c0-0.5,0.4-1,0.9-1h0c0.5,0,1,0.4,1,1C118.2,219.5,117.8,220,117.3,220z M113,220c-0.5,0-1-0.4-1-1c0-0.5,0.4-1,0.9-1h0
					c0.5,0,1,0.4,1,1C114,219.5,113.6,220,113,220z M108.8,220c-0.5,0-1-0.4-1-1c0-0.5,0.4-1,0.9-1h0c0.5,0,1,0.4,1,1
					C109.7,219.5,109.3,220,108.8,220z M104.6,220c-0.5,0-1-0.4-1-1c0-0.5,0.4-1,0.9-1h0c0.5,0,1,0.4,1,1
					C105.5,219.5,105.1,220,104.6,220z"/>
			</g>
			<g>
				<path class="st1" d="M308.2,220c-0.5,0-1-0.4-1-1c0-0.5,0.4-1,0.9-1h0c0.5,0,1,0.4,1,1C309.2,219.5,308.7,220,308.2,220z"/>
			</g>
		</g>
	</g>
	<g>
		<path class="st1" d="M111.8,233.1v-3h-2.8v3h-1v-6.8h1v2.9h2.8v-2.9h1v6.8H111.8z"/>
		<path class="st1" d="M123.3,233.1l-0.5-1.4h-2.7l-0.5,1.4h-1.1l2.5-6.8h0.8l2.5,6.8H123.3z M121.5,227.8l-1.1,3h2.1L121.5,227.8z"
			/>
		<path class="st1" d="M130.2,233.1v-6.8h1v5.9h3.3v0.9H130.2z"/>
		<path class="st1" d="M140.4,233.1v-6.8h4.3v0.9h-3.3v2h2.8v0.9h-2.8v2h3.3v0.9H140.4z"/>
		<path class="st1" d="M159.1,227.2v2.1h2.8v0.9h-2.8v2.9h-1v-6.8h4.3v0.9H159.1z"/>
		<path class="st1" d="M171.7,233.1l-0.5-1.4h-2.7l-0.5,1.4H167l2.5-6.8h0.8l2.5,6.8H171.7z M170,227.8l-1.1,3h2.1L170,227.8z"/>
		<path class="st1" d="M182.3,233.1l-1.4-2.9h-1.3v2.9h-1v-6.8h2.6c1.3,0,2.1,0.8,2.1,2c0,1-0.6,1.6-1.4,1.8l1.6,3H182.3z
			 M181.1,227.2h-1.5v2.1h1.5c0.7,0,1.2-0.4,1.2-1.1S181.8,227.2,181.1,227.2z"/>
		<path class="st1" d="M194.6,233.1v-4.5l-1.6,3.3h-0.8l-1.6-3.3v4.5h-1v-6.8h1l2,4.2l1.9-4.2h1v6.8H194.6z"/>
		<path class="st1" d="M213.6,233.1l-0.6-0.7c-0.3,0.3-0.9,0.7-1.9,0.7c-1.4,0-2.2-0.8-2.2-2c0-0.9,0.7-1.5,1.3-1.9
			c-0.3-0.4-0.7-0.8-0.7-1.5c0-0.9,0.6-1.5,1.7-1.5c1,0,1.6,0.6,1.6,1.5c0,0.5-0.3,0.9-0.7,1.2c0,0-0.3,0.2-0.5,0.3l1.4,1.7
			c0.2-0.4,0.4-0.7,0.4-1.4h0.9c0,0.9-0.2,1.6-0.7,2.1l1.1,1.4H213.6z M210.9,229.8c-0.5,0.3-0.9,0.7-0.9,1.3c0,0.7,0.5,1.2,1.2,1.2
			c0.5,0,0.8-0.1,1.3-0.5L210.9,229.8z M211.3,227.1c-0.4,0-0.7,0.3-0.7,0.7c0,0.3,0.2,0.5,0.5,0.9c0.1-0.1,0.3-0.2,0.3-0.2
			c0.3-0.2,0.5-0.4,0.5-0.7C212,227.4,211.7,227.1,211.3,227.1z"/>
		<path class="st1" d="M230.3,233.1h-0.8l-2.2-6.8h1.1l1.6,4.9l1.6-4.9h1.1L230.3,233.1z"/>
		<path class="st1" d="M238.2,233.1v-6.8h1v6.8H238.2z"/>
		<path class="st1" d="M245.8,233.1v-6.8h1v5.9h3.3v0.9H245.8z"/>
		<path class="st1" d="M256.1,233.1v-6.8h1v5.9h3.3v0.9H256.1z"/>
		<path class="st1" d="M270.3,233.1l-0.5-1.4h-2.7l-0.5,1.4h-1.1l2.5-6.8h0.8l2.5,6.8H270.3z M268.5,227.8l-1.1,3h2.1L268.5,227.8z"
			/>
		<path class="st1" d="M281.1,232.4c-0.5,0.5-1.2,0.8-1.9,0.8c-0.7,0-1.3-0.3-1.8-0.7c-0.7-0.7-0.7-1.4-0.7-2.7s0-2.1,0.7-2.7
			c0.5-0.5,1.1-0.7,1.8-0.7c1.4,0,2.3,0.9,2.5,2.1h-1c-0.2-0.7-0.7-1.2-1.4-1.2c-0.4,0-0.8,0.2-1,0.4c-0.3,0.4-0.4,0.7-0.4,2.1
			s0.1,1.8,0.4,2.1c0.2,0.3,0.6,0.4,1,0.4c0.4,0,0.8-0.2,1.1-0.5c0.2-0.3,0.3-0.6,0.3-1.1v-0.4h-1.5v-0.9h2.5v1
			C281.7,231.3,281.5,231.9,281.1,232.4z"/>
		<path class="st1" d="M288,233.1v-6.8h4.3v0.9H289v2h2.8v0.9H289v2h3.3v0.9H288z"/>
	</g>
</g>
</svg>
