<?xml version="1.0" encoding="utf-8"?>
<!-- Generator: Adobe Illustrator 19.1.0, SVG Export Plug-In . SVG Version: 6.00 Build 0)  -->
<svg version="1.1" id="Layer_1" xmlns="http://www.w3.org/2000/svg" xmlns:xlink="http://www.w3.org/1999/xlink" x="0px" y="0px"
	 viewBox="0 0 400 400" style="enable-background:new 0 0 400 400;" xml:space="preserve">
<style type="text/css">
	.st0{fill:#231F20;stroke:#231F20;stroke-width:1.6245;stroke-miterlimit:10;}
	.st1{fill:#231F20;}
	.st2{fill:none;}
	.st3{fill:#86754D;}
	.st4{font-family:'Glowist';}
	.st5{font-size:84.2601px;}
	.st6{letter-spacing:1;}
	.st7{letter-spacing:3;}
	.st8{font-size:45.546px;}
</style>
<g>
	<path class="st0" d="M106.6,101.1l0-28.6c0-1-0.8-1.9-1.9-1.9h-0.1c-1,0-1.9,0.8-1.9,1.9v28c0,5.2-3.5,9.6-8.1,10.6c0,0,0,0,0,0
		l0-10.6V72.5c0-1-0.8-1.8-1.8-1.8h-0.2c-1,0-1.8,0.8-1.8,1.8v28.6l0,10c0,0,0,0,0,0c-4.6-1-8.1-5.4-8.1-10.6v-28
		c0-1-0.8-1.9-1.9-1.9h-0.1c-1,0-1.9,0.8-1.9,1.9v28.2c0,7,5.1,13.1,12,14.1v152.2c0,0.9,0.7,1.6,1.6,1.6h0.8c0.9,0,1.6-0.7,1.6-1.6
		V114.8C101.4,113.9,106.6,108.1,106.6,101.1z"/>
	<path class="st1" d="M64.3,69.9c-0.4,0-0.7,0-1.1,0.1c-0.8,0.1-1.6,0.5-2.3,1.2c-0.3,0.3-0.6,0.6-0.8,0.9
		c-4.8,6.8-7.6,28.8-7.6,58.9c0,36.5-2.5,47.9,4.4,47.9l-3.6,82.3c0,4.4,3.6,8.1,7.9,8.1c4.4,0,7.9-3.6,7.9-8.1v-78.1V74.9
		C69.3,72.2,67,69.9,64.3,69.9z"/>
	<rect x="161.7" y="85.9" class="st2" width="188.3" height="198"/>
	<text transform="matrix(1 0 0 1 161.7433 130.7832)"><tspan x="0" y="0" class="st3 st4 st5 st6">T</tspan><tspan x="30.8" y="0" class="st3 st4 st5 st7">he </tspan><tspan x="0" y="69.1" class="st3 st4 st5 st7">Tonga </tspan><tspan x="0" y="138.2" class="st3 st4 st5 st7">Room</tspan></text>
	<g>
		<path class="st1" d="M126.7,96.1c0.9,0,2.9,0,4.7,0.3V71.2c-0.6-0.4-2.4-1.2-4.7-1.2c-2.2,0-4,0.7-4.7,1.2v25.1
			C123.8,96.1,125.8,96.1,126.7,96.1z"/>
	</g>
	<path class="st1" d="M126.7,98c-3.4,0-5.6,0.5-6.3,0.8v36.7c2.5-0.5,5.7-0.5,6.3-0.5c0.6,0,3.8,0,6.3,0.5V98.7
		C132.4,98.4,130.2,98,126.7,98z"/>
	<path class="st1" d="M126.7,136.8c-5,0-7.9,0.8-8.5,1.3v0.1v0.3v49.3c3.4-0.5,7.2-0.6,8.5-0.6c1.2,0,5.2,0,8.5,0.6v-49.3v-0.3v-0.1
		C135,137.7,132.1,136.8,126.7,136.8z"/>
	<path class="st1" d="M138.9,199.2l0-7.9c-0.9-0.6-5-1.7-12.2-1.7c-7,0-11.1,1-12.1,1.6l0,7.9v66.9h0c0,1.4,5.4,3.3,12.2,3.3
		c6.7,0,12.2-1.9,12.2-3.3h0V199.2z"/>
	<rect x="50" y="292.1" class="st2" width="294.5" height="38"/>
	<text transform="matrix(1 0 0 1 50.0001 316.4233)" class="st3 st4 st8 st6">&amp; Hurricane Bar</text>
</g>
</svg>
