<?xml version="1.0" encoding="utf-8"?>
<!-- Generator: Adobe Illustrator 19.1.0, SVG Export Plug-In . SVG Version: 6.00 Build 0)  -->
<svg version="1.1" id="Layer_1" xmlns="http://www.w3.org/2000/svg" xmlns:xlink="http://www.w3.org/1999/xlink" x="0px" y="0px"
	 viewBox="0 0 400 400" style="enable-background:new 0 0 400 400;" xml:space="preserve">
<style type="text/css">
	.st0{fill:#1D1D1B;}
	.st1{fill:none;stroke:#FFFFFF;stroke-width:1.0784;}
	.st2{fill:#FFFFFF;}
	.st3{fill:none;stroke:#1D1D1B;stroke-width:2.1568;}
	.st4{fill:none;}
	.st5{fill:none;stroke:#FFFFFF;stroke-width:0.7294;}
	.st6{clip-path:url(#SVGID_2_);fill:#FFFFFF;}
	.st7{clip-path:url(#SVGID_2_);fill:none;stroke:#FFFFFF;stroke-width:0.9804;}
	.st8{fill:none;stroke:#FFFFFF;stroke-width:0.9804;}
	.st9{clip-path:url(#SVGID_4_);fill:#FFFFFF;}
	.st10{clip-path:url(#SVGID_4_);fill:none;stroke:#FFFFFF;stroke-width:0.9804;}
	.st11{clip-path:url(#SVGID_6_);fill:#FFFFFF;}
	.st12{clip-path:url(#SVGID_6_);fill:none;stroke:#FFFFFF;stroke-width:0.9804;}
	.st13{clip-path:url(#SVGID_8_);fill:#FFFFFF;}
	.st14{clip-path:url(#SVGID_8_);fill:none;stroke:#FFFFFF;stroke-width:0.9804;}
	.st15{clip-path:url(#SVGID_10_);fill:#FFFFFF;}
	.st16{clip-path:url(#SVGID_10_);fill:none;stroke:#FFFFFF;stroke-width:0.9804;}
	.st17{clip-path:url(#SVGID_12_);fill:#FFFFFF;}
	.st18{clip-path:url(#SVGID_12_);fill:none;stroke:#FFFFFF;stroke-width:0.9804;}
	.st19{clip-path:url(#SVGID_14_);fill:#FFFFFF;}
	.st20{clip-path:url(#SVGID_14_);fill:none;stroke:#FFFFFF;stroke-width:0.9804;}
	.st21{clip-path:url(#SVGID_16_);fill:none;stroke:#1D1D1B;stroke-width:2.4509;}
	.st22{fill:#E4221F;}
</style>
<g>
	<path class="st0" d="M200,354.5c79.4,0,143.8-64.4,143.8-143.8S279.4,67,200,67S56.2,131.4,56.2,210.8S120.6,354.5,200,354.5"/>
	<circle class="st1" cx="200" cy="210.8" r="143.8"/>
	<path class="st2" d="M199.9,269.6c32.5,0,58.8-26.3,58.8-58.8c0-32.5-26.3-58.8-58.8-58.8s-58.8,26.3-58.8,58.8
		C141.2,243.2,167.5,269.6,199.9,269.6"/>
	<circle class="st3" cx="199.9" cy="210.8" r="58.8"/>
	<rect x="50" y="39.2" class="st4" width="300" height="321.6"/>
	<path class="st0" d="M169.4,197.4c-0.8,0.4-1.7,0.7-2.8,0.7c-4.4,0-7.3-3.1-7.3-7.9c0-5.3,4-11,12.3-11c7.7,0,11.1,4.9,11.1,10
		c0,5.1-3.4,10.2-9.2,10.7c-1.3,8-3.5,12-7.9,12c-3,0-5.2-1.8-5.2-4.9c0-2.2,1.7-4.6,4-4.7v1.5c-1.5,0.1-2.7,1.7-2.7,3.4
		c0,2.2,1.5,3.8,3.9,3.8c4.2,0,5.8-5.7,7-16.5c0.5-4.9,1.4-8.7,2.6-11.3c0.6,0.2,1.1,0.4,1.7,0.6c-1,2-1.9,5-2.5,9.6
		c-0.2,1.9-0.5,3.8-0.7,5.6c4.7-0.6,7.4-5.2,7.4-9.8c0-4.6-2.9-9.1-9.6-9.1c-7.2,0-10.6,5.2-10.6,9.9c0,4.3,2.3,6.7,5.6,6.7
		c1,0,1.7-0.1,2.4-0.6L169.4,197.4z M189.5,198c0.1,0,0.5,0.2,0.5,0.3c-1,2.7-2.7,6.9-5.4,6.9c-2.2,0-3.1-2.2-3.1-4.7
		c0-4,2-8.9,4.8-8.9c1.1,0,1.7,0.8,1.7,1.8c0,2.3-2.6,4.9-4.9,5.3c-0.1,0.6-0.1,1.1-0.1,1.7c0,2,0.6,3.5,2,3.5
		C187,203.8,188.5,200.7,189.5,198z M183.3,197.9c2.4-1.1,3.6-3.2,3.6-4.5c0-0.7-0.2-1-0.6-1C185,192.3,183.8,195.2,183.3,197.9z
		 M190.5,191.7c1.2-5.9,2-6.8,3.1-6.8c0.8,0,1.1,0.7,1.1,1.9c0,1.1-0.5,2.9-1.2,4.8h1l-0.2,0.9h-1.2c-0.6,1.6-1.4,3.2-2.2,4.9
		c-0.2,1.5-0.3,2.9-0.3,4c0,1.7,0.3,2.4,0.9,2.4c1,0,2.1-2.2,3.6-5.9c0.1,0,0.5,0.1,0.5,0.3v0.1c-1.7,4.7-2.9,6.9-4.5,6.9
		c-1.3,0-1.7-1.8-1.7-4.7c0.1-2.1,0.4-4.7,0.9-7.6c0-0.1,0-0.1,0-0.2h-1.1l0.2-0.9H190.5z M192.5,192.6h-0.7l-0.4,2.9L192.5,192.6z
		 M193.6,186.1c-0.6,0-1.1,2.1-1.7,5.6h0.9c0.7-1.9,1.2-3.6,1.2-4.9C194,186.4,193.9,186.1,193.6,186.1z M198.6,203.8
		c0.8,0,1.9-2.1,3.4-5.9c0.1,0,0.5,0.1,0.5,0.3c-1.5,4-2.5,6.9-4.4,6.9c-1.1,0-1.5-0.7-1.5-1.9c0-2,1.4-4.1,1.4-5.9
		c0-1.4-0.6-2.3-1-3.3c-0.4,1.5-0.8,3.1-1.3,4.3c0,0-0.5-0.1-0.5-0.3c0.5-1.5,1-3.3,1.3-5.1c-0.2-0.4-0.3-1-0.3-1.8
		c0-1,0.2-2.2,0.5-3.4l1.4,0.4c0,1.5-0.3,2.8-0.5,4.1l-0.2,0.6c0.7,1.1,2.1,2.4,2.1,4.3c0,2.2-1.4,4.5-1.4,6
		C198,203.6,198.3,203.8,198.6,203.8z M204.8,191.7c-0.3,1.5-1.9,8-1.9,10.9c0,0.9,0.3,1.3,0.6,1.3c0.7,0,2.4-2.8,3-6.1
		c0.4-2.2,0.9-4.3,1.3-6.1h1.5c-0.9,4.5-1.8,8.6-1.8,11c0,0.9,0.2,1.2,0.6,1.2c0.9,0,2-2.1,3.4-5.9c0.1,0,0.5,0.1,0.5,0.3
		c-1.5,4-2.5,6.9-4.4,6.9c-1.1,0-1.4-1.2-1.4-3.1c0-0.2,0-0.4,0-0.6c-0.8,2.1-2,3.6-3.1,3.6s-1.5-1.2-1.5-3c0-3.5,1.5-9.1,1.7-10.4
		H204.8z M217,198c0.1,0,0.5,0.1,0.5,0.3c-1.7,4.7-2.9,6.9-4.5,6.9c-1.3,0-1.7-1.8-1.7-4.7c0.1-2.1,0.4-4.7,0.9-7.6
		c1.3-7,3-11,4.5-11c0.9,0,1.1,0.9,1.1,2.1c0,4.2-2.5,10-4.9,13.5c-0.2,1.5-0.3,2.9-0.3,4c0,1.7,0.3,2.4,0.9,2.4
		C214.4,203.9,215.6,201.7,217,198z M216.7,183c-1,0-2.7,7.1-3.6,13c1.2-2.2,3.9-7.9,3.9-12.1C217,183.5,217,183,216.7,183z
		 M218.2,205.2c-1.3,0-1.7-1.5-1.7-3.4c0-4.1,2.1-10.2,4.7-10.2c1.2,0,1.7,0.9,1.8,2.2l0.4-2h1.3c-0.9,4.4-1.7,7.3-1.7,10.7
		c0,5.2,2.8,8.1,7.1,8.1c5.7,0,9.1-4.8,9.1-9.8c0-4.2-2.6-7.6-7.5-7.8l0.1-1.4c5.9,0.2,8.6,4.5,8.6,9.2c0,5.1-3.7,10.7-10.4,10.7
		c-5.6,0-8.4-3.7-8.4-9.3c0-0.4,0-0.8,0.1-1.3C221,203.2,219.8,205.2,218.2,205.2z M218,201.8c0,1.2,0.3,2.1,0.9,2.1
		c1.6,0,3.6-5.9,3.6-8.8c0-1.4-0.4-2.3-1.2-2.3C219.7,192.7,218,198.5,218,201.8z"/>
	<path class="st0" d="M196.8,212.3c2,0,3.3,0.8,4,1.8c-0.4,0.4-0.8,0.8-1.2,1.2c-0.5-1.1-1.7-1.6-3.2-1.6
		c-6.7,0-13.5,12.9-17.5,31.6c-0.6-0.1-1.2-0.1-1.8-0.2c0.1-2.5,0.3-5.6,0.3-8.8c0-10.7-1.9-19.9-9.8-19.9c-5.8,0-9.1,4.6-9.1,9.7
		c0,4.5,2.8,7.7,6.8,7.7c4.8,0,6.1-5.1,6.3-7.7l1.6,0.3c-0.3,3.9-2.3,8.5-7.9,8.5c-5.3,0-8.5-3.8-8.5-8.7c0-5.8,4-10.6,10.9-10.6
		c8.9,0,11.4,9.2,11.4,19.8c0,2.7-0.2,5.4-0.4,8C182.4,225.2,189.5,212.3,196.8,212.3z M190.6,237.3c0.8,0,2-2.1,3.4-5.9
		c0.1,0,0.5,0.1,0.5,0.3c-1.5,4.1-2.5,6.8-4.6,6.8c-0.9,0-1.4-0.7-1.4-1.8c0-1.9,1.4-4.1,1.4-6c0-1.3-0.6-2.2-1-3.2
		c-0.9,3.9-2.3,8.4-3.4,11.1l-0.6-0.3c1.2-3.1,2.5-7.8,3.4-11.9c-0.6-1.7-0.3-3.5,0.1-5.2c0.4,0.1,0.9,0.2,1.3,0.2
		c0,1.4-0.2,2.9-0.6,4.6c0.8,1.1,2.2,2.4,2.2,4.3c0,2.2-1.4,4.5-1.4,6C190,237,190.3,237.3,190.6,237.3z M203.8,231.7
		c-0.7,1.9-1.8,3.1-3.2,3.6c-0.9,1.9-2.4,3.4-3.9,3.4c-3.3,0-3.5-4.8-2.1-9.8l0.9,0.2c0.4-2.2,1.7-4,3.7-4c3.1,0,3.3,5.4,1.7,9.4
		c1-0.5,1.7-1.3,2.4-3C203.4,231.4,203.9,231.5,203.8,231.7z M199,235.4c-2.5-0.2-3.5-2.4-3.6-4.7c-0.4,2.4-1,7.1,1.3,7.1
		C197.6,237.8,198.4,236.8,199,235.4z M199.3,234.6c1.5-3.8,1.7-8.8-0.1-8.8C195.9,225.7,194.7,234.6,199.3,234.6z M201.8,238.4
		c0.1-0.4,0.3-2.5,1-4.5c0.6-3.1,1.2-6.7,1.4-8.8h1.6l-0.7,4c1-2.2,2.1-4.2,3.9-4.2c0.9,0,1.5,0.7,1.5,1.9c0,2.4-2,7-2,9.3
		c0,0.8,0.3,1.1,0.7,1.1c1,0,2.2-2.6,3.4-5.9c0.2,0,0.5,0.2,0.5,0.3l-0.3,0.8c-1.1,3-2.5,6-4.3,6c-1,0-1.7-0.7-1.7-2.1
		c0-2.7,2.1-7.4,2.1-9.3c0-0.7-0.2-1.1-0.7-1.1c-1,0-2.7,2.7-3.8,6.5l-1.1,5.8H201.8z M213.5,225.1c1.2-5.9,2-6.8,3.1-6.8
		c0.8,0,1.1,0.7,1.1,1.9c0,1.1-0.5,2.9-1.2,4.8h1l-0.2,0.9h-1.2c-0.6,1.6-1.4,3.2-2.2,4.9c-0.2,1.5-0.3,2.9-0.3,4
		c0,1.7,0.3,2.4,0.9,2.4c1,0,2.1-2.2,3.6-5.9c0.1,0,0.5,0.1,0.5,0.3v0.1c-1.7,4.7-2.9,6.9-4.5,6.9c-1.3,0-1.7-1.8-1.7-4.7
		c0.1-2.1,0.4-4.7,0.9-7.6c0-0.1,0-0.1,0-0.2h-1.1l0.2-0.9H213.5z M215.5,226.1h-0.7l-0.4,2.9L215.5,226.1z M216.6,219.5
		c-0.6,0-1.1,2.1-1.7,5.6h0.9c0.7-1.9,1.2-3.6,1.2-4.9C217,219.8,217,219.5,216.6,219.5z M221,225.1c-0.9,4.5-1.8,8.6-1.8,11
		c0,0.9,0.2,1.2,0.5,1.2c0.9,0,2-2.1,3.4-5.9c0.1,0,0.5,0.1,0.5,0.3c-1.5,4-2.5,6.9-4.4,6.9c-1,0-1.5-1.3-1.5-3
		c0-2.9,1.1-7.4,1.7-10.4H221z M219.8,222.1c0-0.6,0.4-1.4,1.2-1.4c0.6,0,0.9,0.5,0.9,1c0,0.7-0.5,1.4-1.2,1.4
		C220.1,223,219.8,222.6,219.8,222.1z M221.9,238.4l0.1-1.1c0.1-1.7,0.6-3.5,0.7-4.1c0.9-6.1,2.2-13.7,3.6-16.5
		c0.4-1,1.3-1.3,1.9-1.3c0.8,0,1.3,0.4,1.3,1.4c0,2.2-2.1,6.6-4.4,11.4l-0.4,1.8c1.2-2.9,2.5-5.1,4-5.1c0.9,0,1.3,0.6,1.3,1.4
		c0,1.9-2,5.4-4.1,6.5c0.9,1.3,1,4.4,1.8,4.4s2.3-2.5,3.6-5.8c0.2,0,0.5,0.3,0.5,0.3c-0.1,0.3-0.2,0.6-0.3,0.8c-1.2,3-2.6,6-4.1,6
		c-2,0-1.9-3.9-2.6-5.3c-0.1,0-0.2,0-0.3,0c-0.1,0-0.2,0-0.2,0l-0.8,5.2H221.9z M224.6,231.3l-0.1,0.8c0.3,0,0.5,0,0.8,0.2
		c1.5-0.9,3.4-4.2,3.4-5.5c0-0.3-0.1-0.6-0.4-0.6C227.3,226.2,226.1,228,224.6,231.3z M228.1,216.4c-0.9,0-1.9,4.6-2.8,9.9
		c0.9-2.1,2.9-6.9,3.1-9.2C228.4,216.6,228.4,216.4,228.1,216.4z M234,225.1c-0.9,4.5-1.8,8.6-1.8,11c0,0.9,0.2,1.2,0.5,1.2
		c0.9,0,2-2.1,3.4-5.9c0.1,0,0.5,0.1,0.5,0.3c-1.5,4-2.5,6.9-4.4,6.9c-1,0-1.5-1.3-1.5-3c0-2.9,1.1-7.4,1.7-10.4H234z M232.9,222.1
		c0-0.6,0.4-1.4,1.2-1.4c0.6,0,0.9,0.5,0.9,1c0,0.7-0.5,1.4-1.2,1.4C233.2,223,232.9,222.6,232.9,222.1z M236.6,235.9
		c0,0.8,0.5,1.5,1.3,1.5c1.1,0,1.8-1.2,1.8-2.6c0-2.1-1.1-4.3-1.7-7.3c-0.5,1.5-1,3-1.5,4.2c0,0-0.5-0.1-0.5-0.3
		c0.5-1.3,1.2-3.2,1.8-5c-0.1-0.6-0.2-1.3-0.2-2.5c0-1,0.3-2,0.5-2.9l1.2,0.2c-0.1,1.7-0.3,2.9-0.7,4.2c0.2,2.9,2.6,6.3,2.6,9.2
		c0,0.2,0,0.5-0.1,0.7c0.6-1,1.2-2.3,1.8-3.9c0.1,0,0.5,0.2,0.5,0.3c-1,2.3-2.5,6.9-5.8,6.9c-1.3,0-2.6-0.8-2.5-2.6L236.6,235.9z"/>
	<line class="st1" x1="200" y1="67" x2="200" y2="91.3"/>
	<line class="st1" x1="200" y1="330.3" x2="200" y2="354.7"/>
	<line class="st5" x1="185.1" y1="67.6" x2="186.7" y2="85.5"/>
	<line class="st5" x1="213.3" y1="336.2" x2="214.9" y2="353.9"/>
	<line class="st5" x1="170.2" y1="69.8" x2="173.7" y2="87.3"/>
	<line class="st5" x1="226.4" y1="334.1" x2="229.8" y2="351.5"/>
	<line class="st1" x1="155.6" y1="73.7" x2="163.9" y2="99.8"/>
	<line class="st1" x1="236.2" y1="321.7" x2="244.4" y2="347.5"/>
	<line class="st5" x1="141.7" y1="79.4" x2="148.8" y2="95.7"/>
	<line class="st5" x1="251.4" y1="325.9" x2="258.5" y2="342.1"/>
	<line class="st5" x1="128.1" y1="85.9" x2="136.9" y2="101.4"/>
	<line class="st5" x1="263.2" y1="319.9" x2="271.9" y2="335.2"/>
	<line class="st1" x1="115.4" y1="94.1" x2="131.4" y2="116.2"/>
	<line class="st1" x1="268.7" y1="305.1" x2="284.5" y2="327"/>
	<line class="st5" x1="103.7" y1="103.6" x2="115.5" y2="116.8"/>
	<line class="st5" x1="284.5" y1="304.4" x2="296.2" y2="317.5"/>
	<line class="st5" x1="93.4" y1="114.6" x2="106.6" y2="126.4"/>
	<line class="st5" x1="293.8" y1="295" x2="306.9" y2="306.8"/>
	<line class="st1" x1="83.8" y1="126.1" x2="105.6" y2="141.9"/>
	<line class="st1" x1="294.5" y1="279.2" x2="316.4" y2="295"/>
	<line class="st5" x1="75.6" y1="138.7" x2="91" y2="147.5"/>
	<line class="st5" x1="309.3" y1="273.7" x2="324.6" y2="282.4"/>
	<line class="st5" x1="68.9" y1="152.2" x2="85.2" y2="159.3"/>
	<line class="st5" x1="315.2" y1="261.9" x2="331.4" y2="268.9"/>
	<line class="st1" x1="62.9" y1="166" x2="89" y2="174.3"/>
	<line class="st1" x1="310.8" y1="246.6" x2="336.8" y2="254.8"/>
	<line class="st5" x1="59" y1="180.6" x2="76.5" y2="184.1"/>
	<line class="st5" x1="323.3" y1="236.8" x2="340.7" y2="240.3"/>
	<line class="st5" x1="57.2" y1="195.6" x2="75.1" y2="197.2"/>
	<line class="st5" x1="325.4" y1="223.7" x2="343" y2="225.4"/>
	<line class="st1" x1="56.2" y1="210.4" x2="83.3" y2="210.4"/>
	<line class="st1" x1="316.4" y1="210.4" x2="343.8" y2="210.4"/>
	<line class="st5" x1="57.3" y1="225.4" x2="75.1" y2="223.7"/>
	<line class="st5" x1="325.4" y1="197.2" x2="343.1" y2="195.6"/>
	<line class="st5" x1="59.4" y1="240.1" x2="77" y2="236.6"/>
	<line class="st5" x1="323.2" y1="184.1" x2="340.6" y2="180.6"/>
	<line class="st1" x1="62.7" y1="254.8" x2="88.8" y2="246.5"/>
	<line class="st1" x1="310.6" y1="174.3" x2="336.6" y2="166"/>
	<line class="st5" x1="68.1" y1="268.9" x2="84.5" y2="261.8"/>
	<line class="st5" x1="315" y1="159" x2="331.2" y2="152"/>
	<line class="st5" x1="75" y1="282.4" x2="90.5" y2="273.6"/>
	<line class="st5" x1="309" y1="147.3" x2="324.3" y2="138.5"/>
	<line class="st1" x1="83.2" y1="295" x2="105.3" y2="279.1"/>
	<line class="st1" x1="294" y1="141.8" x2="316.1" y2="125.9"/>
	<line class="st5" x1="92.6" y1="306.8" x2="105.9" y2="294.9"/>
	<line class="st5" x1="293.5" y1="125.9" x2="306.5" y2="114.2"/>
	<line class="st5" x1="103.3" y1="317.5" x2="115.2" y2="304.2"/>
	<line class="st5" x1="284.1" y1="116.6" x2="295.9" y2="103.6"/>
	<line class="st1" x1="115" y1="327" x2="130.9" y2="305"/>
	<line class="st1" x1="268.2" y1="116.1" x2="284.1" y2="94.1"/>
	<line class="st5" x1="127.6" y1="335.2" x2="136.4" y2="319.7"/>
	<line class="st5" x1="262.7" y1="101.2" x2="271.5" y2="85.9"/>
	<line class="st5" x1="141.1" y1="342.1" x2="148.2" y2="325.7"/>
	<line class="st5" x1="251" y1="95.2" x2="258" y2="79"/>
	<line class="st1" x1="155.1" y1="347.5" x2="163.4" y2="321.5"/>
	<line class="st1" x1="235.6" y1="100" x2="243.9" y2="73.7"/>
	<line class="st5" x1="169.7" y1="351.5" x2="173.2" y2="333.9"/>
	<line class="st5" x1="225.9" y1="87.1" x2="229.3" y2="69.8"/>
	<line class="st5" x1="184.6" y1="353.9" x2="186.2" y2="336"/>
	<line class="st5" x1="212.8" y1="85.1" x2="214.4" y2="67.4"/>
	<g>
		<defs>
			<rect id="SVGID_1_" x="50" y="39.2" width="300" height="321.6"/>
		</defs>
		<clipPath id="SVGID_2_">
			<use xlink:href="#SVGID_1_"  style="overflow:visible;"/>
		</clipPath>
		<path class="st6" d="M104.4,186.7l-1.5,5.2l-8.1-2.4l1.5-5.2c0.8-2.6,2.6-3.9,5.3-3.1C104.4,182,105.2,184.1,104.4,186.7
			 M105.7,186.9c0.9-3.2-0.3-6.1-3.6-7.1c-3.4-1-6,0.8-6.9,4l-2,6.7l18.4,5.5l0.4-1.4l-7.8-2.3L105.7,186.9z"/>
		<path class="st7" d="M104.4,186.7l-1.5,5.2l-8.1-2.4l1.5-5.2c0.8-2.6,2.6-3.9,5.3-3.1C104.4,182,105.2,184.1,104.4,186.7z
			 M105.7,186.9c0.9-3.2-0.3-6.1-3.6-7.1c-3.4-1-6,0.8-6.9,4l-2,6.7l18.4,5.5l0.4-1.4l-7.8-2.3L105.7,186.9z"/>
		<path class="st6" d="M118,155l-3.1,4.7l-6.5-4.2l3.1-4.7c1.4-2.1,3.3-2.9,5.6-1.4C119.3,150.8,119.3,152.9,118,155 M119.7,154.6
			c1.1-2.5,0.5-5-1.9-6.5c-2.8-1.8-5.6-0.8-7.3,1.8l-4,6.1l16.1,10.5l0.8-1.2l-7.4-4.8l2.9-4.4l9.9,1l0.9-1.4L119.7,154.6z"/>
		<path class="st7" d="M118,155l-3.1,4.7l-6.5-4.2l3.1-4.7c1.4-2.1,3.3-2.9,5.6-1.4C119.3,150.8,119.3,152.9,118,155z M119.7,154.6
			c1.1-2.5,0.5-5-1.9-6.5c-2.8-1.8-5.6-0.8-7.3,1.8l-4,6.1l16.1,10.5l0.8-1.2l-7.4-4.8l2.9-4.4l9.9,1l0.9-1.4L119.7,154.6z"/>
	</g>
	<path class="st2" d="M143.6,134l-6.3,5l-3.9-11.3L143.6,134z M150.2,136.3l-17.5-10.6l-1,0.8l6.5,19.4l1.2-1l-1.6-4.7l7-5.6
		l4.2,2.6L150.2,136.3z"/>
	<path class="st8" d="M143.6,134l-6.3,5l-3.9-11.3L143.6,134z M150.2,136.3l-17.5-10.6l-1,0.8l6.5,19.4l1.2-1l-1.6-4.7l7-5.6
		l4.2,2.6L150.2,136.3z"/>
	<g>
		<defs>
			<rect id="SVGID_3_" x="50" y="39.2" width="300" height="321.6"/>
		</defs>
		<clipPath id="SVGID_4_">
			<use xlink:href="#SVGID_3_"  style="overflow:visible;"/>
		</clipPath>
		<path class="st9" d="M174.9,119.6l-1.4,0.4c0.2,2.7-1.3,4.8-3.8,5.5c-1.3,0.4-2.7,0.2-3.9-0.5c-1.7-1-2.2-2.4-3.3-6.4
			c-1.1-4-1.4-5.4-0.4-7.1c0.7-1.2,1.8-2,3.1-2.4c2.5-0.7,4.7,0.4,6,2.8l1.4-0.4c-1.5-3.2-4.4-4.6-7.8-3.7c-1.8,0.5-3.2,1.6-4.1,3.2
			c-1.2,2.1-0.8,3.8,0.3,8c1.1,4.2,1.6,5.8,3.8,7.1c1.6,0.9,3.4,1.1,5.1,0.6C173.4,125.8,175.2,123.1,174.9,119.6"/>
		<path class="st10" d="M174.9,119.6l-1.4,0.4c0.2,2.7-1.3,4.8-3.8,5.5c-1.3,0.4-2.7,0.2-3.9-0.5c-1.7-1-2.2-2.4-3.3-6.4
			c-1.1-4-1.4-5.4-0.4-7.1c0.7-1.2,1.8-2,3.1-2.4c2.5-0.7,4.7,0.4,6,2.8l1.4-0.4c-1.5-3.2-4.4-4.6-7.8-3.7c-1.8,0.5-3.2,1.6-4.1,3.2
			c-1.2,2.1-0.8,3.8,0.3,8c1.1,4.2,1.6,5.8,3.8,7.1c1.6,0.9,3.4,1.1,5.1,0.6C173.4,125.8,175.2,123.1,174.9,119.6z"/>
	</g>
	<polygon class="st2" points="198.7,104 204.4,104 204.4,102.8 191.5,102.6 191.5,103.9 197.2,104 197,121.9 198.5,121.9 	"/>
	<polygon class="st8" points="198.7,104 204.4,104 204.4,102.8 191.5,102.6 191.5,103.9 197.2,104 197,121.9 198.5,121.9 	"/>
	
		<rect x="224.3" y="106.1" transform="matrix(-0.9594 -0.2821 0.2821 -0.9594 408.1873 290.2509)" class="st2" width="1.5" height="19.2"/>
	
		<rect x="224.3" y="106.1" transform="matrix(-0.9594 -0.2821 0.2821 -0.9594 408.1873 290.2509)" class="st8" width="1.5" height="19.2"/>
	<g>
		<defs>
			<rect id="SVGID_5_" x="50" y="39.2" width="300" height="321.6"/>
		</defs>
		<clipPath id="SVGID_6_">
			<use xlink:href="#SVGID_5_"  style="overflow:visible;"/>
		</clipPath>
		<path class="st11" d="M254.3,134l-1.2-0.8c-2,1.9-4.5,2.1-6.6,0.6c-1.1-0.8-1.9-1.9-2.1-3.3c-0.3-1.9,0.4-3.2,2.8-6.6
			c2.3-3.4,3.3-4.5,5.2-4.9c1.4-0.2,2.7,0.1,3.8,0.9c2.1,1.5,2.7,3.9,1.7,6.4l1.2,0.8c1.4-3.2,0.7-6.4-2.2-8.3
			c-1.5-1-3.3-1.4-5.1-1.1c-2.4,0.4-3.4,1.8-5.9,5.4c-2.5,3.5-3.4,5-3,7.4c0.3,1.8,1.3,3.3,2.8,4.4
			C248.5,136.8,251.8,136.4,254.3,134"/>
		<path class="st12" d="M254.3,134l-1.2-0.8c-2,1.9-4.5,2.1-6.6,0.6c-1.1-0.8-1.9-1.9-2.1-3.3c-0.3-1.9,0.4-3.2,2.8-6.6
			c2.3-3.4,3.3-4.5,5.2-4.9c1.4-0.2,2.7,0.1,3.8,0.9c2.1,1.5,2.7,3.9,1.7,6.4l1.2,0.8c1.4-3.2,0.7-6.4-2.2-8.3
			c-1.5-1-3.3-1.4-5.1-1.1c-2.4,0.4-3.4,1.8-5.9,5.4c-2.5,3.5-3.4,5-3,7.4c0.3,1.8,1.3,3.3,2.8,4.4
			C248.5,136.8,251.8,136.4,254.3,134z"/>
	</g>
	<polygon class="st2" points="262.9,148.4 270.5,157.3 271.5,156.5 264.8,148.7 270.7,143.7 276.4,150.3 277.3,149.4 271.7,142.8 
		277.5,137.9 284.1,145.7 285.1,144.8 277.5,136 	"/>
	<polygon class="st8" points="262.9,148.4 270.5,157.3 271.5,156.5 264.8,148.7 270.7,143.7 276.4,150.3 277.3,149.4 271.7,142.8 
		277.5,137.9 284.1,145.7 285.1,144.8 277.5,136 	"/>
	<g>
		<defs>
			<rect id="SVGID_7_" x="50" y="39.2" width="300" height="321.6"/>
		</defs>
		<clipPath id="SVGID_8_">
			<use xlink:href="#SVGID_7_"  style="overflow:visible;"/>
		</clipPath>
		<path class="st13" d="M293.3,200.9c1.8-0.2,3.1-0.8,4-1.9c0.7-0.9,1.1-2.2,1.2-3.9l0.1-2.3c0-0.7,0.2-1.1,0.4-1.4
			c0.3-0.3,0.6-0.4,0.8-0.5c0.8-0.1,1.8,0.5,2,2.1c0.1,0.8,0.4,2.4-0.7,3.7l3.3,2.6c1.4-1.8,1.9-4,1.5-6.7c-0.5-4.3-3.3-6.7-6.8-6.3
			c-1.6,0.2-2.9,0.8-3.7,1.7c-0.8,1-1.2,2.3-1.2,4l-0.1,2.3c0,0.6-0.2,1-0.4,1.3c-0.3,0.3-0.6,0.5-1.1,0.5c-1.1,0.1-1.8-0.7-2-2.5
			c-0.2-1.5,0-3.3,0.9-4.4l-3.3-2.7c-1.8,2.2-2,4.6-1.7,7.5C286.9,198.3,289.4,201.4,293.3,200.9"/>
		<path class="st14" d="M293.3,200.9c1.8-0.2,3.1-0.8,4-1.9c0.7-0.9,1.1-2.2,1.2-3.9l0.1-2.3c0-0.7,0.2-1.1,0.4-1.4
			c0.3-0.3,0.6-0.4,0.8-0.5c0.8-0.1,1.8,0.5,2,2.1c0.1,0.8,0.4,2.4-0.7,3.7l3.3,2.6c1.4-1.8,1.9-4,1.5-6.7c-0.5-4.3-3.3-6.7-6.8-6.3
			c-1.6,0.2-2.9,0.8-3.7,1.7c-0.8,1-1.2,2.3-1.2,4l-0.1,2.3c0,0.6-0.2,1-0.4,1.3c-0.3,0.3-0.6,0.5-1.1,0.5c-1.1,0.1-1.8-0.7-2-2.5
			c-0.2-1.5,0-3.3,0.9-4.4l-3.3-2.7c-1.8,2.2-2,4.6-1.7,7.5C286.9,198.3,289.4,201.4,293.3,200.9z"/>
	</g>
	<path class="st2" d="M299,224.6l-5.3,0.9l0.5-3.3L299,224.6z M306.5,223.7l-18-9.7l-0.7,4.9l2.7,1.3l-0.8,5.8l-3,0.5l-0.7,4.9
		l20-4.1L306.5,223.7z"/>
	<path class="st8" d="M299,224.6l-5.3,0.9l0.5-3.3L299,224.6z M306.5,223.7l-18-9.7l-0.7,4.9l2.7,1.3l-0.8,5.8l-3,0.5l-0.7,4.9
		l20-4.1L306.5,223.7z"/>
	<polygon class="st2" points="287.8,264 291.4,266.1 298,254.9 281.5,245.1 279.1,249.2 285.5,253 281.9,259.1 285.5,261.2 
		289.1,255.1 292,256.8 	"/>
	<polygon class="st8" points="287.8,264 291.4,266.1 298,254.9 281.5,245.1 279.1,249.2 285.5,253 281.9,259.1 285.5,261.2 
		289.1,255.1 292,256.8 	"/>
	<polygon class="st2" points="256.6,277.7 259.4,280.8 265.6,275.3 267.8,277.8 262.5,282.5 265.3,285.7 270.6,281 272.8,283.4 
		266.5,288.9 269.3,292 279.1,283.4 266.3,269 	"/>
	<polygon class="st8" points="256.6,277.7 259.4,280.8 265.6,275.3 267.8,277.8 262.5,282.5 265.3,285.7 270.6,281 272.8,283.4 
		266.5,288.9 269.3,292 279.1,283.4 266.3,269 	"/>
	<g>
		<defs>
			<rect id="SVGID_9_" x="50" y="39.2" width="300" height="321.6"/>
		</defs>
		<clipPath id="SVGID_10_">
			<use xlink:href="#SVGID_9_"  style="overflow:visible;"/>
		</clipPath>
		<path class="st15" d="M226.1,313.5l-4.6,0.8c-1.5,0.3-3,0.2-4.3-0.8c-1.7-1.3-2.1-4.1-2.5-6.2c-0.4-2.1-1-5.4,0.3-7.2
			c0.9-1.3,2.3-1.9,3.8-2.1l4.6-0.8L226.1,313.5z M227.8,314.6l-3.1-18.9l-6.4,1.1c-2,0.3-3.5,1.2-4.4,2.5c-1.6,2.2-0.9,5.8-0.5,8.3
			c0.4,2.6,0.8,5.6,3.1,7.2c1.3,1,3,1.3,5,0.9L227.8,314.6z"/>
		<path class="st16" d="M226.1,313.5l-4.6,0.8c-1.5,0.3-3,0.2-4.3-0.8c-1.7-1.3-2.1-4.1-2.5-6.2c-0.4-2.1-1-5.4,0.3-7.2
			c0.9-1.3,2.3-1.9,3.8-2.1l4.6-0.8L226.1,313.5z M227.8,314.6l-3.1-18.9l-6.4,1.1c-2,0.3-3.5,1.2-4.4,2.5c-1.6,2.2-0.9,5.8-0.5,8.3
			c0.4,2.6,0.8,5.6,3.1,7.2c1.3,1,3,1.3,5,0.9L227.8,314.6z"/>
	</g>
	<polygon class="st2" points="196.2,299.2 184.7,297.3 184.5,298.6 194.6,300.3 193.3,307.9 184.7,306.5 184.5,307.8 193.1,309.2 
		191.9,316.7 181.8,315 181.6,316.3 193.1,318.2 	"/>
	<polygon class="st8" points="196.2,299.2 184.7,297.3 184.5,298.6 194.6,300.3 193.3,307.9 184.7,306.5 184.5,307.8 193.1,309.2 
		191.9,316.7 181.8,315 181.6,316.3 193.1,318.2 	"/>
	<g>
		<defs>
			<rect id="SVGID_11_" x="50" y="39.2" width="300" height="321.6"/>
		</defs>
		<clipPath id="SVGID_12_">
			<use xlink:href="#SVGID_11_"  style="overflow:visible;"/>
		</clipPath>
		<path class="st17" d="M156.3,293.1c-0.7,1.4-0.8,2.8-0.3,4.1c0.4,1,1,1.7,2.4,2.7l1.7,1.3c0.9,0.7,1.6,1.6,2,2.4
			c0.3,0.8,0.2,1.7-0.3,2.7c-1.1,2.2-3.3,2.7-5.8,1.4c-2-1.1-2.8-2.3-3.3-3.7l-1.3,0.4c0.8,2,1.8,3.3,3.9,4.4c3.3,1.7,6.2,1,7.7-1.9
			c0.7-1.3,0.8-2.6,0.3-3.8c-0.4-1-1.2-2-2.4-2.8l-1.8-1.4c-1.3-0.9-1.6-1.4-2-2.2c-0.4-0.9-0.2-1.8,0.3-2.9
			c1.2-2.2,3.5-2.6,6.2-1.2c2,1.1,3,2.2,3.8,4.5l1.4-0.4c-0.7-2.4-2-3.9-4.5-5.2C160.9,289.6,157.8,290.2,156.3,293.1"/>
		<path class="st18" d="M156.3,293.1c-0.7,1.4-0.8,2.8-0.3,4.1c0.4,1,1,1.7,2.4,2.7l1.7,1.3c0.9,0.7,1.6,1.6,2,2.4
			c0.3,0.8,0.2,1.7-0.3,2.7c-1.1,2.2-3.3,2.7-5.8,1.4c-2-1.1-2.8-2.3-3.3-3.7l-1.3,0.4c0.8,2,1.8,3.3,3.9,4.4c3.3,1.7,6.2,1,7.7-1.9
			c0.7-1.3,0.8-2.6,0.3-3.8c-0.4-1-1.2-2-2.4-2.8l-1.8-1.4c-1.3-0.9-1.6-1.4-2-2.2c-0.4-0.9-0.2-1.8,0.3-2.9
			c1.2-2.2,3.5-2.6,6.2-1.2c2,1.1,3,2.2,3.8,4.5l1.4-0.4c-0.7-2.4-2-3.9-4.5-5.2C160.9,289.6,157.8,290.2,156.3,293.1z"/>
	</g>
	
		<rect x="135.1" y="275.3" transform="matrix(0.7155 0.6986 -0.6986 0.7155 237.6808 -13.8072)" class="st2" width="1.5" height="19.2"/>
	
		<rect x="135.1" y="275.3" transform="matrix(0.7155 0.6986 -0.6986 0.7155 237.6808 -13.8072)" class="st8" width="1.5" height="19.2"/>
	<g>
		<defs>
			<rect id="SVGID_13_" x="50" y="39.2" width="300" height="321.6"/>
		</defs>
		<clipPath id="SVGID_14_">
			<use xlink:href="#SVGID_13_"  style="overflow:visible;"/>
		</clipPath>
		<path class="st19" d="M116.7,257l-2.7,1.6l3.4,5.7l1.1-0.7l-2.6-4.4l1.5-0.9c1.4-0.8,2.5-1.1,3.9-0.9c1.6,0.2,2.9,1.2,3.6,2.5
			c0.7,1.2,0.9,2.6,0.6,3.9c-0.5,1.9-1.7,2.7-5.3,4.8c-3.5,2.1-4.9,2.8-6.8,2.3c-1.3-0.3-2.4-1.2-3.1-2.4c-1.3-2.2-0.9-4.7,1.1-6.6
			l-0.7-1.3c-2.6,2.2-3.2,5.6-1.5,8.5c0.9,1.6,2.4,2.7,4.1,3.1c2.4,0.6,3.9-0.2,7.6-2.4c3.7-2.2,5.2-3.1,5.8-5.5
			c0.4-1.7,0.2-3.6-0.7-5.1c-1-1.7-2.6-2.8-4.5-3.2C119.9,255.6,118.5,255.9,116.7,257"/>
		<path class="st20" d="M116.7,257l-2.7,1.6l3.4,5.7l1.1-0.7l-2.6-4.4l1.5-0.9c1.4-0.8,2.5-1.1,3.9-0.9c1.6,0.2,2.9,1.2,3.6,2.5
			c0.7,1.2,0.9,2.6,0.6,3.9c-0.5,1.9-1.7,2.7-5.3,4.8c-3.5,2.1-4.9,2.8-6.8,2.3c-1.3-0.3-2.4-1.2-3.1-2.4c-1.3-2.2-0.9-4.7,1.1-6.6
			l-0.7-1.3c-2.6,2.2-3.2,5.6-1.5,8.5c0.9,1.6,2.4,2.7,4.1,3.1c2.4,0.6,3.9-0.2,7.6-2.4c3.7-2.2,5.2-3.1,5.8-5.5
			c0.4-1.7,0.2-3.6-0.7-5.1c-1-1.7-2.6-2.8-4.5-3.2C119.9,255.6,118.5,255.9,116.7,257z"/>
	</g>
	<polygon class="st2" points="112.5,226.7 112.2,225.3 93.6,229.9 93.9,231.3 110.1,227.3 96.5,242.1 96.9,243.5 115.5,238.9 
		115.2,237.5 99,241.5 	"/>
	<polygon class="st8" points="112.5,226.7 112.2,225.3 93.6,229.9 93.9,231.3 110.1,227.3 96.5,242.1 96.9,243.5 115.5,238.9 
		115.2,237.5 99,241.5 	"/>
	<g>
		<defs>
			<rect id="SVGID_15_" x="50" y="39.2" width="300" height="321.6"/>
		</defs>
		<clipPath id="SVGID_16_">
			<use xlink:href="#SVGID_15_"  style="overflow:visible;"/>
		</clipPath>
		<circle class="st21" cx="200" cy="210.8" r="148.8"/>
	</g>
	<polygon class="st22" points="192.7,39.2 200,53.7 207.2,39.2 	"/>
</g>
</svg>
