<?xml version="1.0" encoding="utf-8"?>
<!-- Generator: Adobe Illustrator 19.1.0, SVG Export Plug-In . SVG Version: 6.00 Build 0)  -->
<svg version="1.1" id="Layer_1" xmlns="http://www.w3.org/2000/svg" xmlns:xlink="http://www.w3.org/1999/xlink" x="0px" y="0px"
	 viewBox="0 0 400 400" style="enable-background:new 0 0 400 400;" xml:space="preserve">
<style type="text/css">
	.st0{clip-path:url(#SVGID_2_);fill:#CB2027;}
	.st1{clip-path:url(#SVGID_2_);}
	.st2{clip-path:url(#SVGID_4_);}
	.st3{clip-path:url(#SVGID_6_);fill:#CB2027;}
</style>
<g>
	<defs>
		<rect id="SVGID_1_" x="50.1" y="46.9" width="300" height="300"/>
	</defs>
	<clipPath id="SVGID_2_">
		<use xlink:href="#SVGID_1_"  style="overflow:visible;"/>
	</clipPath>
	<path class="st0" d="M233.4,224.8c0,6.9-2,13.4-5.4,18.9l26.5,26.5c5.7-7.1,10-15.3,12.7-24.2l-33.8-33.8V224.8z"/>
	<path class="st1" d="M299,172.7l-46.7-68.1l-46.7,67.8c0,0-2.6,4.8,1,8.3c3.5,3.5,8.1,2.3,8.1,2.3l18.2-4.6h0.5v33.8l33.8,33.8
		c2-6.7,3.1-13.8,3.1-21.2v-46.2l1.3,0l18.4,4.6c0,0,4.5,1.2,8.1-2.3C301.6,177.4,299,172.7,299,172.7"/>
</g>
<polygon points="161.5,140.3 161.5,104.4 125.5,104.4 "/>
<g>
	<defs>
		<rect id="SVGID_3_" x="50.1" y="46.9" width="300" height="300"/>
	</defs>
	<clipPath id="SVGID_4_">
		<use xlink:href="#SVGID_3_"  style="overflow:visible;"/>
	</clipPath>
	<path class="st2" d="M197.4,297.7c23.1,0,43.7-10.8,57-27.5L228,243.7c-6.3,10.2-17.6,17.1-30.5,17.1c-19.8,0-36-16.1-36-36v-47.6
		l-36.9-36.9v84.5C124.5,265.1,157.2,297.7,197.4,297.7"/>
</g>
<polygon points="161.5,140.3 125.5,104.4 124.5,104.4 124.5,140.3 161.5,177.2 "/>
<g>
	<defs>
		<rect id="SVGID_5_" x="50.1" y="46.9" width="300" height="300"/>
	</defs>
	<clipPath id="SVGID_6_">
		<use xlink:href="#SVGID_5_"  style="overflow:visible;"/>
	</clipPath>
	<path class="st3" d="M296.7,275.6L267.2,246c-2.7,8.9-7.1,17.1-12.7,24.2l23.8,23.8c-21.4,17.2-48.5,27.6-78.1,27.6
		c-68.8,0-124.7-55.9-124.7-124.7c0-29.6,10.4-56.7,27.6-78.1l21.5,21.5v-35.9h1l-4.1-4.1c21.5-17.5,48.9-28.1,78.7-28.1
		c68.8,0,124.7,55.9,124.7,124.7C324.8,226.7,314.3,254.1,296.7,275.6 M200.1,46.9c-82.8,0-150,67.2-150,150
		c0,82.8,67.2,150,150,150c82.8,0,150-67.2,150-150C350.1,114.1,282.9,46.9,200.1,46.9"/>
	<path class="st3" d="M228,243.7c3.4-5.5,5.4-12,5.4-18.9v-12.6l-71.9-71.9v36.9L228,243.7z"/>
</g>
</svg>
