<?xml version="1.0" encoding="utf-8"?>
<!-- Generator: Adobe Illustrator 18.1.1, SVG Export Plug-In . SVG Version: 6.00 Build 0)  -->
<svg version="1.1" id="Layer_1" xmlns="http://www.w3.org/2000/svg" xmlns:xlink="http://www.w3.org/1999/xlink" x="0px" y="0px"
	 viewBox="0 0 150.2 114.5" enable-background="new 0 0 150.2 114.5" xml:space="preserve">
<g>
	<path fill="#231F20" d="M21.3,19.6c0-0.4,0.2-0.7,0.7-0.7h10.2c4,0,6.1,2.2,6.1,6.2v21.8c0,4-2.1,6.1-6.1,6.1H22
		c-0.5,0-0.7-0.2-0.7-0.7V19.6z M31,47.4c1.1,0,1.7-0.6,1.7-1.7V26.3c0-1.1-0.6-1.7-1.7-1.7h-3.9v22.8H31z"/>
	<path fill="#231F20" d="M57.6,53c-0.4,0-0.6-0.2-0.7-0.6l-1.2-6.2h-7.6L47,52.4c-0.1,0.4-0.3,0.6-0.7,0.6h-4.6
		c-0.5,0-0.7-0.3-0.6-0.7l7.1-32.7c0.1-0.4,0.3-0.6,0.7-0.6h5.9c0.4,0,0.6,0.2,0.7,0.6l7.1,32.7c0.1,0.5-0.1,0.7-0.6,0.7H57.6z
		 M51.9,26.4l-2.7,14.9h5.4L51.9,26.4z"/>
	<path fill="#231F20" d="M83.4,18.9c0.4,0,0.7,0.3,0.7,0.7v32.7c0,0.4-0.3,0.7-0.7,0.7h-4.2c-0.4,0-0.6-0.2-0.8-0.6l-6.5-18.2h-0.2
		v18.1c0,0.4-0.2,0.7-0.7,0.7h-4.4c-0.4,0-0.7-0.3-0.7-0.7V19.6c0-0.4,0.3-0.7,0.7-0.7h4.2c0.4,0,0.6,0.2,0.8,0.6L78,37.6h0.3v-18
		c0-0.4,0.2-0.7,0.7-0.7H83.4z"/>
	<path fill="#231F20" d="M105,18.9c0.4,0,0.7,0.3,0.7,0.7v32.7c0,0.4-0.3,0.7-0.7,0.7h-4.2c-0.4,0-0.6-0.2-0.8-0.6l-6.5-18.2h-0.2
		v18.1c0,0.4-0.2,0.7-0.7,0.7h-4.4c-0.4,0-0.7-0.3-0.7-0.7V19.6c0-0.4,0.3-0.7,0.7-0.7h4.2c0.4,0,0.6,0.2,0.8,0.6l6.5,18.1h0.3v-18
		c0-0.4,0.2-0.7,0.7-0.7H105z"/>
	<path fill="#231F20" d="M129.3,18.9c0.6,0,0.9,0.4,0.7,1l-7.8,18.9v13.3c0,0.6-0.3,0.9-0.9,0.9h-4.1c-0.6,0-0.9-0.3-0.9-0.9V38.9
		l-7.8-18.9c-0.3-0.6,0-1,0.7-1h4.3c0.5,0,0.8,0.2,1,0.7l4.8,12.2l4.8-12.2c0.2-0.5,0.5-0.7,1-0.7H129.3z"/>
	<path fill="#231F20" d="M43.6,61.5c0.6,0,0.9,0.3,0.9,0.9v32.4c0,0.6-0.3,0.9-0.9,0.9h-4c-0.6,0-0.9-0.3-0.9-0.9V75.6h-0.3
		l-4.2,19.2c-0.1,0.5-0.4,0.8-0.9,0.8h-2.1c-0.5,0-0.8-0.3-0.9-0.8l-4.2-19.2h-0.3v19.2c0,0.6-0.3,0.9-0.9,0.9H21
		c-0.6,0-0.9-0.3-0.9-0.9V62.4c0-0.6,0.3-0.9,0.9-0.9h5.6c0.5,0,0.8,0.3,0.9,0.8l4.7,21.2L37,62.3c0.1-0.5,0.4-0.8,0.9-0.8H43.6z"/>
	<path fill="#231F20" d="M68,61.5c0.6,0,0.9,0.4,0.7,1l-7.8,18.9v13.3c0,0.6-0.3,0.9-0.9,0.9H56c-0.6,0-0.9-0.3-0.9-0.9V81.4
		l-7.8-18.9c-0.3-0.6,0-1,0.7-1h4.3c0.5,0,0.8,0.2,1,0.7L58,74.4l4.8-12.2c0.2-0.5,0.5-0.7,1-0.7H68z"/>
	<path fill="#231F20" d="M88.6,66.4c0,0.4-0.2,0.7-0.7,0.7H77.3v8.5h8.1c0.4,0,0.7,0.3,0.7,0.7v4.2c0,0.5-0.3,0.7-0.7,0.7h-8.1v8.6
		H88c0.5,0,0.7,0.2,0.7,0.7v4.3c0,0.4-0.2,0.7-0.7,0.7H72.3c-0.4,0-0.6-0.3-0.6-0.7V62.2c0-0.4,0.3-0.7,0.6-0.7H88
		c0.5,0,0.7,0.3,0.7,0.7V66.4z"/>
	<path fill="#231F20" d="M109.6,78c0,2.9-1.1,4.7-3.1,5.6l2.9,11.2c0.1,0.5-0.1,0.8-0.6,0.8h-4.4c-0.4,0-0.6-0.2-0.7-0.6l-2.9-10.8
		h-2.9v10.7c0,0.4-0.3,0.7-0.7,0.7h-4.4c-0.4,0-0.7-0.3-0.7-0.7V62.2c0-0.4,0.3-0.7,0.7-0.7h10.7c4,0,6.1,2.1,6.1,6.1V78z
		 M102.1,78.5c1.1,0,1.7-0.6,1.7-1.7v-8c0-1.1-0.6-1.7-1.7-1.7h-4.2v11.4H102.1z"/>
	<path fill="#231F20" d="M123.9,61.5c4,0,6.1,2.1,6.1,6.1v4.5c0,0.4-0.2,0.7-0.7,0.7h-4.4c-0.4,0-0.7-0.3-0.7-0.7v-3.3
		c0-1.1-0.6-1.7-1.7-1.7h-2c-1.1,0-1.7,0.6-1.7,1.7v5.9l10.1,3.3c0.7,0.3,1.1,0.8,1.1,1.6v9.8c0,4-2.1,6.1-6.1,6.1h-4.8
		c-4,0-6.1-2.1-6.1-6.1V85c0-0.5,0.3-0.7,0.7-0.7h4.4c0.5,0,0.7,0.2,0.7,0.7v3.3c0,1.1,0.6,1.7,1.7,1.7h2c1.1,0,1.7-0.6,1.7-1.7
		v-5.7l-10.1-3.3c-0.8-0.3-1.1-0.8-1.1-1.6v-10c0-4,2.2-6.1,6.1-6.1H123.9z"/>
</g>
<path fill="none" stroke="#231F20" stroke-width="5.8282" stroke-linejoin="round" stroke-miterlimit="10" d="M141.1,111.4H9.2
	c-3.3,0-6-2.7-6-6V9.2c0-3.3,2.7-6,6-6h131.9c3.3,0,6,2.7,6,6v96.2C147.1,108.7,144.4,111.4,141.1,111.4z"/>
</svg>
