<?xml version="1.0" encoding="utf-8"?>
<!-- Generator: Adobe Illustrator 19.1.0, SVG Export Plug-In . SVG Version: 6.00 Build 0)  -->
<svg version="1.1" id="Layer_1" xmlns:sketch="http://www.bohemiancoding.com/sketch/ns"
	 xmlns="http://www.w3.org/2000/svg" xmlns:xlink="http://www.w3.org/1999/xlink" x="0px" y="0px" viewBox="-280 372 50 50"
	 style="enable-background:new -280 372 50 50;" xml:space="preserve">
<path d="M-244.1,387.5c-0.2-1-1-1.8-2-2h-0.1h-17.7c-0.1,0-0.2,0-0.3,0.1c-1,0.2-1.7,1.1-1.8,2.1v0.1v18.5c0,0.1,0,0.2,0.1,0.4
	c0.2,1,1,1.8,2,1.9h0.1h17.6c0.1,0,0.2,0,0.3-0.1c0.9-0.2,1.6-1,1.8-1.9c0-0.1,0-0.2,0-0.3v-18.4
	C-244.1,387.7-244.1,387.5-244.1,387.5z M-249.4,387.3c0.7,0,1.4,0,2.1,0c0.5,0,0.9,0.4,0.9,0.9c0,0.7,0,1.5,0,2.2
	c0,0.5-0.4,0.9-0.8,0.9c-0.4,0-0.7,0-1.1,0c-0.3,0-0.7,0-1,0c-0.4,0-0.7-0.2-0.9-0.6c0-0.1-0.1-0.2-0.1-0.3c0-0.7,0-1.4,0-2.2
	C-250.2,387.8-249.9,387.3-249.4,387.3z M-255.1,392.2c2.5,0,4.5,2.2,4.5,4.8c-0.1,2.5-2.1,4.6-4.6,4.6c-2.4-0.1-4.4-2.1-4.4-4.7
	C-259.5,394.3-257.5,392.2-255.1,392.2z M-246.4,394.8c0,3.4,0,6.8,0,10.2c0,0.5-0.4,0.9-0.9,0.9c-5.2,0-10.3,0-15.5,0
	c-0.5,0-0.9-0.4-0.9-0.9c0-3.4,0-6.8,0-10.2v-0.1c0.7,0,1.4,0,2.1,0c-0.5,1.9-0.4,3.8,0.5,5.6c0.6,1.2,1.5,2.1,2.7,2.8
	c2.3,1.3,5,1.2,7.2-0.3c0.8-0.6,1.5-1.3,2-2.2c0.5-0.9,0.8-1.8,0.9-2.9c0.1-1,0-2-0.3-3L-246.4,394.8L-246.4,394.8z"/>
</svg>
