<?xml version="1.0" encoding="utf-8"?>
<!-- Generator: Adobe Illustrator 19.1.0, SVG Export Plug-In . SVG Version: 6.00 Build 0)  -->
<svg version="1.1" id="Layer_1" xmlns:sketch="http://www.bohemiancoding.com/sketch/ns"
	 xmlns="http://www.w3.org/2000/svg" xmlns:xlink="http://www.w3.org/1999/xlink" x="0px" y="0px" viewBox="-280 372 50 50"
	 style="enable-background:new -280 372 50 50;" xml:space="preserve">
<title></title>
<rect x="-266" y="392.1" width="4.7" height="14.5"/>
<path d="M-263.3,385c-1.6,0-2.7,1.1-2.7,2.5s1,2.5,2.6,2.5l0,0c1.6,0,2.7-1.1,2.7-2.5S-261.7,385-263.3,385z"/>
<path d="M-249.4,392.1c-2.5,0-3.6,1.4-4.2,2.4v-2.1h-4.7c0.1,1.4,0,14.5,0,14.5h4.7v-8.1c0-0.4,0-0.9,0.2-1.2
	c0.3-0.9,1.1-1.8,2.4-1.8c1.7,0,2.4,1.3,2.4,3.3v7.8h4.7v-8.3C-244,394.2-246.3,392.1-249.4,392.1z"/>
</svg>
