<?xml version="1.0" encoding="utf-8"?>
<!-- Generator: Adobe Illustrator 19.1.0, SVG Export Plug-In . SVG Version: 6.00 Build 0)  -->
<svg version="1.1" id="Layer_1" xmlns:sketch="http://www.bohemiancoding.com/sketch/ns"
	 xmlns="http://www.w3.org/2000/svg" xmlns:xlink="http://www.w3.org/1999/xlink" x="0px" y="0px" viewBox="-280 372 50 50"
	 style="enable-background:new -280 372 50 50;" xml:space="preserve">
<g>
	<path id="Twitter__x28_alt_x29_" d="M-242.9,395.8c1.8-0.1,3-0.9,3.4-2c-0.6,0.4-2.6,0.8-3.7,0.4c-0.1-0.3-0.1-0.5-0.2-0.7
		c-0.8-3-3.7-5.5-6.6-5.2c0.2-0.1,0.5-0.2,0.7-0.3c0.3-0.1,2.3-0.4,1.9-1.1c-0.3-0.6-2.6,0.5-3,0.6c0.6-0.2,1.5-0.6,1.7-1.3
		c-0.9,0.1-1.8,0.5-2.5,1.2c0.2-0.3,0.4-0.6,0.5-0.9c-2.4,1.5-3.8,4.6-4.9,7.6c-0.9-0.9-1.7-1.5-2.4-1.9c-2-1.1-4.3-2.2-8-3.5
		c-0.1,1.2,0.6,2.9,2.7,3.9c-0.4-0.1-1.3,0.1-1.9,0.2c0.3,1.4,1.1,2.6,3.5,3.1c-1.1,0.1-1.6,0.3-2.1,0.8c0.5,1,1.7,2.1,3.9,1.9
		c-2.4,1-1,3,1,2.7c-3.3,3.4-8.6,3.2-11.6,0.3c7.9,10.8,25.1,6.4,27.6-4c1.9,0,3-0.7,3.7-1.4C-240.4,396.3-242,396.2-242.9,395.8z"
		/>
</g>
</svg>
