<?xml version="1.0" encoding="utf-8"?>
<!-- Generator: Adobe Illustrator 18.1.1, SVG Export Plug-In . SVG Version: 6.00 Build 0)  -->
<svg version="1.1" id="Layer_1" xmlns:sketch="http://www.bohemiancoding.com/sketch/ns"
	 xmlns="http://www.w3.org/2000/svg" xmlns:xlink="http://www.w3.org/1999/xlink" x="0px" y="0px" viewBox="-262 264 50 50"
	 enable-background="new -262 264 50 50" xml:space="preserve">
<title></title>
<path fill="#FFFFFF" d="M-237,264c-13.8,0-25,11.2-25,25s11.2,25,25,25s25-11.2,25-25S-223.2,264-237,264z M-237,311
	c-12.2,0-22-9.8-22-22s9.8-22,22-22s22,9.8,22,22S-224.8,311-237,311z"/>
<rect x="-248" y="284.1" fill="#FFFFFF" width="4.7" height="14.5"/>
<path fill="#FFFFFF" d="M-245.3,277c-1.6,0-2.7,1.1-2.7,2.5c0,1.4,1,2.5,2.6,2.5h0c1.6,0,2.7-1.1,2.7-2.5
	C-242.7,278.1-243.7,277-245.3,277z"/>
<path fill="#FFFFFF" d="M-231.4,284.1c-2.5,0-3.6,1.4-4.2,2.4v-2.1h-4.7c0.1,1.4,0,14.5,0,14.5h4.7v-8.1c0-0.4,0-0.9,0.2-1.2
	c0.3-0.9,1.1-1.8,2.4-1.8c1.7,0,2.4,1.3,2.4,3.3v7.8h4.7l0-8.3C-226,286.2-228.3,284.1-231.4,284.1z"/>
</svg>
